<?xml version="1.0" encoding="iso-8859-1"?>
<!-- Generator: Adobe Illustrator 19.0.0, SVG Export Plug-In . SVG Version: 6.00 Build 0)  -->
<svg version="1.1" id="Capa_1" xmlns="http://www.w3.org/2000/svg" xmlns:xlink="http://www.w3.org/1999/xlink" x="0px" y="0px"
	 viewBox="0 0 512 512" style="enable-background:new 0 0 512 512;" xml:space="preserve">
<g>
	<g>
		<path d="M497.231,142.769H384.153l-35.672-89.178c-2.242-5.607-7.672-9.284-13.712-9.284H177.231
			c-6.04,0-11.47,3.677-13.713,9.284l-35.671,89.178h-14.617V128c0-24.431-19.876-44.308-44.308-44.308S24.615,103.569,24.615,128
			v14.769h-9.846C6.613,142.769,0,149.382,0,157.538v295.385c0,8.157,6.613,14.769,14.769,14.769h482.462
			c8.157,0,14.769-6.613,14.769-14.769V157.538C512,149.382,505.387,142.769,497.231,142.769z M54.154,128
			c0-8.144,6.625-14.769,14.769-14.769c8.144,0,14.769,6.625,14.769,14.769v14.769H54.154V128z M482.462,438.154H29.538V172.308
			h9.846h59.077h39.385c6.04,0,11.47-3.677,13.713-9.284l35.671-89.178h137.54l35.672,89.178c2.243,5.607,7.673,9.284,13.713,9.284
			h108.308V438.154z"/>
	</g>
</g>
<g>
	<g>
		<path d="M256,162.462c-67.865,0-123.077,55.212-123.077,123.077S188.135,408.615,256,408.615s123.077-55.212,123.077-123.077
			S323.865,162.462,256,162.462z M256,379.077c-51.577,0-93.538-41.961-93.538-93.538S204.423,192,256,192
			s93.538,41.961,93.538,93.538S307.577,379.077,256,379.077z"/>
	</g>
</g>
<g>
	<g>
		<path d="M443.077,201.846h-39.385c-8.157,0-14.769,6.613-14.769,14.769c0,8.157,6.613,14.769,14.769,14.769h39.385
			c8.157,0,14.769-6.613,14.769-14.769C457.846,208.459,451.233,201.846,443.077,201.846z"/>
	</g>
</g>
<g>
</g>
<g>
</g>
<g>
</g>
<g>
</g>
<g>
</g>
<g>
</g>
<g>
</g>
<g>
</g>
<g>
</g>
<g>
</g>
<g>
</g>
<g>
</g>
<g>
</g>
<g>
</g>
<g>
</g>
</svg>
