<?xml version="1.0" encoding="iso-8859-1"?>
<!-- Generator: Adobe Illustrator 19.0.0, SVG Export Plug-In . SVG Version: 6.00 Build 0)  -->
<svg version="1.1" id="Capa_1" xmlns="http://www.w3.org/2000/svg" xmlns:xlink="http://www.w3.org/1999/xlink" x="0px" y="0px"
	 viewBox="0 0 512 512" style="enable-background:new 0 0 512 512;" xml:space="preserve">
<g>
	<g>
		<path d="M448,192h-19.692v-34.462c0-35.29-28.71-64-64-64h-54.154v-4.923c0-29.86-24.293-54.154-54.154-54.154
			s-54.154,24.293-54.154,54.154v4.923h-54.154c-35.29,0-64,28.71-64,64V192H64c-35.29,0-64,28.71-64,64s28.71,64,64,64h19.692
			v83.692v29.538c0,24.431,18.403,44.308,41.026,44.308H128h256h3.282c22.622,0,41.026-19.876,41.026-44.308v-29.538V320H448
			c35.29,0,64-28.71,64-64S483.29,192,448,192z M83.692,290.462H64c-19.002,0-34.462-15.459-34.462-34.462
			S44.998,221.538,64,221.538h19.692V290.462z M231.385,88.615C231.385,75.042,242.427,64,256,64s24.615,11.042,24.615,24.615v4.923
			h-49.231V88.615z M398.769,433.231c0,8.144-6.625,14.769-14.769,14.769H128c-8.144,0-14.769-6.625-14.769-14.769v-14.769h285.538
			V433.231z M398.769,388.923H113.231V221.538h285.538V388.923z M398.769,192H113.231v-34.462c0-19.002,15.459-34.462,34.462-34.462
			h68.923h78.769h68.923c19.002,0,34.462,15.459,34.462,34.462V192z M448,290.462h-19.692v-68.923H448
			c19.002,0,34.462,15.459,34.462,34.462S467.002,290.462,448,290.462z"/>
	</g>
</g>
<g>
</g>
<g>
</g>
<g>
</g>
<g>
</g>
<g>
</g>
<g>
</g>
<g>
</g>
<g>
</g>
<g>
</g>
<g>
</g>
<g>
</g>
<g>
</g>
<g>
</g>
<g>
</g>
<g>
</g>
</svg>
