<?xml version="1.0" encoding="iso-8859-1"?>
<!-- Generator: Adobe Illustrator 19.0.0, SVG Export Plug-In . SVG Version: 6.00 Build 0)  -->
<svg version="1.1" id="Capa_1" xmlns="http://www.w3.org/2000/svg" xmlns:xlink="http://www.w3.org/1999/xlink" x="0px" y="0px"
	 viewBox="0 0 512 512" style="enable-background:new 0 0 512 512;" xml:space="preserve">
<g>
	<g>
		<path d="M467.692,142.769h-30.364c-7.371-66.368-63.796-118.154-132.098-118.154h-98.462
			c-68.302,0-124.727,51.786-132.098,118.154H44.308C19.876,142.769,0,162.646,0,187.077v256c0,24.431,19.876,44.308,44.308,44.308
			h423.385c24.431,0,44.308-19.876,44.308-44.308v-256C512,162.646,492.124,142.769,467.692,142.769z M206.769,54.154h98.462
			c51.993,0,95.144,38.58,102.333,88.615h-19.945c-6.997-39.128-41.278-68.923-82.388-68.923h-98.462
			c-41.109,0-75.391,29.795-82.388,68.923h-19.945C111.625,92.734,154.777,54.154,206.769,54.154z M357.321,142.769H154.679
			c6.446-22.702,27.35-39.385,52.09-39.385h98.462C329.971,103.385,350.874,120.067,357.321,142.769z M482.462,443.077
			c0,8.144-6.625,14.769-14.769,14.769H44.308c-8.144,0-14.769-6.625-14.769-14.769v-256c0-8.144,6.625-14.769,14.769-14.769
			h423.385c8.144,0,14.769,6.625,14.769,14.769V443.077z"/>
	</g>
</g>
<g>
	<g>
		<path d="M344.615,270.769h-44.308v-44.308c0-8.157-6.613-14.769-14.769-14.769h-59.077c-8.157,0-14.769,6.613-14.769,14.769
			v44.308h-44.308c-8.157,0-14.769,6.613-14.769,14.769v59.077c0,8.157,6.613,14.769,14.769,14.769h44.308v44.308
			c0,8.157,6.613,14.769,14.769,14.769h59.077c8.157,0,14.769-6.613,14.769-14.769v-44.308h44.308
			c8.157,0,14.769-6.613,14.769-14.769v-59.077C359.385,277.382,352.772,270.769,344.615,270.769z M329.846,329.846h-44.308
			c-8.157,0-14.769,6.613-14.769,14.769v44.308h-29.538v-44.308c0-8.156-6.613-14.769-14.769-14.769h-44.308v-29.538h44.308
			c8.157,0,14.769-6.613,14.769-14.769v-44.308h29.538v44.308c0,8.157,6.613,14.769,14.769,14.769h44.308V329.846z"/>
	</g>
</g>
<g>
</g>
<g>
</g>
<g>
</g>
<g>
</g>
<g>
</g>
<g>
</g>
<g>
</g>
<g>
</g>
<g>
</g>
<g>
</g>
<g>
</g>
<g>
</g>
<g>
</g>
<g>
</g>
<g>
</g>
</svg>
