<?xml version="1.0" encoding="iso-8859-1"?>
<!-- Generator: Adobe Illustrator 19.0.0, SVG Export Plug-In . SVG Version: 6.00 Build 0)  -->
<svg version="1.1" id="Capa_1" xmlns="http://www.w3.org/2000/svg" xmlns:xlink="http://www.w3.org/1999/xlink" x="0px" y="0px"
	 viewBox="0 0 512 512" style="enable-background:new 0 0 512 512;" xml:space="preserve">
<g>
	<g>
		<path d="M403.692,201.846h-34.462v-68.923h9.846v44.308c0,8.157,6.613,14.769,14.769,14.769s14.769-6.613,14.769-14.769v-59.077
			c0-8.157-6.613-14.769-14.769-14.769h-24.615v-4.923c0-8.157-6.613-14.769-14.769-14.769h-14.769V68.923
			c0-8.157-6.613-14.769-14.769-14.769s-14.769,6.613-14.769,14.769v14.769h-14.769c-8.157,0-14.769,6.613-14.769,14.769v103.385
			h-29.538V14.769C251.077,6.613,244.464,0,236.308,0h-78.769c-8.157,0-14.769,6.613-14.769,14.769v187.077h-34.462
			c-8.157,0-14.769,6.613-14.769,14.769c0,8.157,6.613,14.769,14.769,14.769h14.769v236.308c0,24.431,19.876,44.308,44.308,44.308
			h177.231c24.431,0,44.308-19.876,44.308-44.308V231.385h14.769c8.157,0,14.769-6.613,14.769-14.769
			C418.462,208.459,411.849,201.846,403.692,201.846z M310.154,113.231h29.538v88.615h-29.538V113.231z M172.308,29.538h49.231
			v14.769h-14.769c-8.157,0-14.769,6.613-14.769,14.769s6.613,14.769,14.769,14.769h14.769v29.539h-4.923
			c-8.156,0-14.769,6.613-14.769,14.769s6.613,14.769,14.769,14.769h4.923v29.538h-14.769c-8.157,0-14.769,6.613-14.769,14.769
			S198.613,192,206.769,192h14.769v9.846h-49.231V29.538z M359.385,467.692c0,8.144-6.625,14.769-14.769,14.769H167.385
			c-8.144,0-14.769-6.625-14.769-14.769v-9.846h206.769V467.692z M359.385,428.308H152.615V231.385h206.769V428.308z"/>
	</g>
</g>
<g>
</g>
<g>
</g>
<g>
</g>
<g>
</g>
<g>
</g>
<g>
</g>
<g>
</g>
<g>
</g>
<g>
</g>
<g>
</g>
<g>
</g>
<g>
</g>
<g>
</g>
<g>
</g>
<g>
</g>
</svg>
