<?xml version="1.0" encoding="iso-8859-1"?>
<!-- Generator: Adobe Illustrator 19.0.0, SVG Export Plug-In . SVG Version: 6.00 Build 0)  -->
<svg version="1.1" id="Capa_1" xmlns="http://www.w3.org/2000/svg" xmlns:xlink="http://www.w3.org/1999/xlink" x="0px" y="0px"
	 viewBox="0 0 512 512" style="enable-background:new 0 0 512 512;" xml:space="preserve">
<g>
	<g>
		<path d="M503.742,262.436L223.127,124.59c-2.026-0.996-4.254-1.513-6.511-1.513h-9.846c-24.431,0-44.308,19.876-44.308,44.308
			c0,8.144-6.625,14.769-14.769,14.769h-39.385c-8.144,0-14.769-6.625-14.769-14.769c0-24.431-19.876-44.308-44.308-44.308h-4.923
			C19.876,123.077,0,142.953,0,167.385v147.692v59.077c0,8.157,6.613,14.769,14.769,14.769h482.462
			c8.157,0,14.769-6.613,14.769-14.769v-59.077v-39.385C512,270.06,508.797,264.92,503.742,262.436z M482.462,359.385H29.538
			v-29.539h452.923V359.385z M482.462,300.308H29.538V167.385c0-8.144,6.625-14.769,14.769-14.769h4.923
			c8.144,0,14.769,6.625,14.769,14.769c0,24.431,19.876,44.308,44.308,44.308h39.385c24.431,0,44.308-19.876,44.308-44.308
			c0-8.144,6.625-14.769,14.769-14.769h6.415l62.56,30.731L247.138,204.8c-6.526,4.895-7.848,14.152-2.954,20.677
			c2.902,3.87,7.336,5.909,11.827,5.909c3.084,0,6.193-0.963,8.85-2.955l40.629-30.472l37.68,18.509l-36.956,27.717
			c-6.526,4.894-7.848,14.152-2.954,20.677c2.902,3.87,7.336,5.909,11.827,5.909c3.084,0,6.193-0.963,8.85-2.955l48.979-36.734
			l109.544,53.811V300.308z"/>
	</g>
</g>
<g>
</g>
<g>
</g>
<g>
</g>
<g>
</g>
<g>
</g>
<g>
</g>
<g>
</g>
<g>
</g>
<g>
</g>
<g>
</g>
<g>
</g>
<g>
</g>
<g>
</g>
<g>
</g>
<g>
</g>
</svg>
