<?xml version="1.0" encoding="iso-8859-1"?>
<!-- Generator: Adobe Illustrator 19.0.0, SVG Export Plug-In . SVG Version: 6.00 Build 0)  -->
<svg version="1.1" id="Capa_1" xmlns="http://www.w3.org/2000/svg" xmlns:xlink="http://www.w3.org/1999/xlink" x="0px" y="0px"
	 viewBox="0 0 512 512" style="enable-background:new 0 0 512 512;" xml:space="preserve">
<g>
	<g>
		<path d="M393.505,180.034c-21.972-21.972-48.381-38.131-77.393-47.517l39.481-43.869c3.474-3.86,4.665-9.259,3.139-14.223
			l-19.692-64C337.132,4.229,331.407,0,324.923,0H187.077c-6.484,0-12.209,4.229-14.116,10.426l-19.692,64
			c-1.527,4.963-0.336,10.363,3.139,14.223l39.481,43.869c-29.012,9.385-55.42,25.544-77.393,47.517
			c-36.729,36.728-56.957,85.562-56.957,137.504s20.228,100.776,56.957,137.505C155.225,491.771,204.058,512,256,512
			s100.776-20.228,137.505-56.957c36.728-36.729,56.957-85.562,56.957-137.505S430.234,216.762,393.505,180.034z M183.963,75.111
			l14.023-45.573h116.029l14.023,45.573l-50.246,55.829l-0.001,0.001L256,155.153l-21.791-24.212l-0.001-0.001L183.963,75.111z
			 M337.807,235.732c21.851,21.852,33.886,50.905,33.886,81.807c0,30.902-12.035,59.955-33.886,81.807
			c-21.852,21.851-50.905,33.886-81.807,33.886s-59.955-12.035-81.807-33.886c-21.851-21.852-33.886-50.905-33.886-81.807
			c0-30.902,12.035-59.955,33.886-81.807c21.852-21.851,50.905-33.886,81.807-33.886S315.955,213.881,337.807,235.732z
			 M372.618,434.156c-31.149,31.15-72.565,48.305-116.618,48.305s-85.469-17.155-116.618-48.305s-48.305-72.565-48.305-116.618
			s17.155-85.469,48.305-116.618c21.862-21.862,48.882-36.939,78.551-43.909l11.51,12.789l3.837,4.263
			c-30.164,4.71-57.974,18.781-79.973,40.782c-27.43,27.43-42.537,63.901-42.537,102.692s15.107,75.262,42.537,102.693
			S217.208,462.769,256,462.769s75.262-15.107,102.693-42.537s42.537-63.902,42.537-102.693s-15.107-75.262-42.537-102.693
			c-21.999-22-49.81-36.071-79.973-40.782l3.837-4.263l11.51-12.789c29.668,6.97,56.688,22.047,78.551,43.909
			c31.15,31.15,48.305,72.565,48.305,116.618S403.768,403.007,372.618,434.156z"/>
	</g>
</g>
<g>
</g>
<g>
</g>
<g>
</g>
<g>
</g>
<g>
</g>
<g>
</g>
<g>
</g>
<g>
</g>
<g>
</g>
<g>
</g>
<g>
</g>
<g>
</g>
<g>
</g>
<g>
</g>
<g>
</g>
</svg>
