<?xml version="1.0" encoding="iso-8859-1"?>
<!-- Generator: Adobe Illustrator 19.0.0, SVG Export Plug-In . SVG Version: 6.00 Build 0)  -->
<svg version="1.1" id="Capa_1" xmlns="http://www.w3.org/2000/svg" xmlns:xlink="http://www.w3.org/1999/xlink" x="0px" y="0px"
	 viewBox="0 0 512 512" style="enable-background:new 0 0 512 512;" xml:space="preserve">
<g>
	<g>
		<path d="M476.197,320.441l-67.582-16.895v-62.315h24.615c8.157,0,14.769-6.613,14.769-14.769v-93.538
			C448,94.918,417.082,64,379.077,64h-9.846v-5.908C369.231,26.061,343.17,0,311.138,0H200.861
			c-32.032,0-58.092,26.061-58.092,58.092V64h-9.846C94.919,64,64,94.918,64,132.923v93.538c0,8.157,6.613,14.769,14.769,14.769
			h24.615v62.315l-67.582,16.896c-6.574,1.642-11.187,7.55-11.187,14.327v132.923c0,24.431,19.876,44.308,44.308,44.308h49.231
			h275.692h49.231c24.431,0,44.308-19.876,44.308-44.308V334.769C487.385,327.992,482.772,322.084,476.197,320.441z
			 M103.385,482.462H68.923c-8.144,0-14.769-6.625-14.769-14.769V346.301l49.231-12.308V482.462z M172.308,58.092
			c0-15.744,12.809-28.554,28.554-28.554h110.277c15.744,0,28.554,12.81,28.554,28.554V64H172.308V58.092z M379.077,315.077v167.385
			H132.923V315.077v-73.846h29.538v19.692c0,16.287,13.251,29.538,29.538,29.538h9.846c16.288,0,29.539-13.251,29.539-29.538
			v-19.692h49.231v19.692c0,16.287,13.251,29.538,29.539,29.538H320c16.287,0,29.538-13.251,29.538-29.538v-19.692h29.538V315.077z
			 M192,260.923v-34.462V192h9.846v34.462v34.462H192z M310.154,260.923v-34.462V192H320v34.462v34.462H310.154z M349.538,211.692
			V192c0-16.287-13.251-29.538-29.538-29.538h-9.846c-16.288,0-29.539,13.251-29.539,29.538v19.692h-49.231V192
			c0-16.287-13.251-29.538-29.539-29.538H192c-16.287,0-29.538,13.251-29.538,29.538v19.692h-44.308H93.538v-78.769
			c0-21.717,17.668-39.385,39.385-39.385h246.154c21.717,0,39.385,17.668,39.385,39.385v78.769h-24.615H349.538z M457.846,467.692
			c0,8.144-6.625,14.769-14.769,14.769h-34.462V333.993l49.231,12.308V467.692z"/>
	</g>
</g>
<g>
	<g>
		<path d="M344.615,310.154H167.385c-8.157,0-14.769,6.613-14.769,14.769v118.154c0,8.157,6.613,14.769,14.769,14.769h177.231
			c8.157,0,14.769-6.613,14.769-14.769V324.923C359.385,316.767,352.772,310.154,344.615,310.154z M329.846,428.308H182.154v-88.615
			h147.692V428.308z"/>
	</g>
</g>
<g>
</g>
<g>
</g>
<g>
</g>
<g>
</g>
<g>
</g>
<g>
</g>
<g>
</g>
<g>
</g>
<g>
</g>
<g>
</g>
<g>
</g>
<g>
</g>
<g>
</g>
<g>
</g>
<g>
</g>
</svg>
