<?xml version="1.0" encoding="iso-8859-1"?>
<!-- Generator: Adobe Illustrator 19.0.0, SVG Export Plug-In . SVG Version: 6.00 Build 0)  -->
<svg version="1.1" id="Capa_1" xmlns="http://www.w3.org/2000/svg" xmlns:xlink="http://www.w3.org/1999/xlink" x="0px" y="0px"
	 viewBox="0 0 512 512" style="enable-background:new 0 0 512 512;" xml:space="preserve">
<g>
	<g>
		<path d="M510.699,269.632l-17.582-39.073v-0.001l-26.724-59.388c-2.387-5.3-7.657-8.709-13.47-8.709h-83.692v-24.615
			c0-19.002-15.459-34.461-34.462-34.461H34.462C15.459,103.385,0,118.844,0,137.846v196.923c0,19.002,15.459,34.462,34.462,34.462
			h31.602c6.446,22.702,27.35,39.385,52.09,39.385c24.74,0,45.643-16.682,52.09-39.385h132.128
			c6.446,22.702,27.35,39.385,52.09,39.385s45.643-16.682,52.09-39.385h70.986c19.002,0,34.462-15.459,34.462-34.462v-59.077
			C512,273.603,511.557,271.536,510.699,269.632z M369.231,192h74.143l13.292,29.538h-87.435V192z M118.154,379.077
			c-13.573,0-24.615-11.042-24.615-24.615s11.042-24.615,24.615-24.615c13.573,0,24.615,11.042,24.615,24.615
			S131.727,379.077,118.154,379.077z M327.52,307.514c-0.262,0.151-0.525,0.296-0.784,0.451c-0.88,0.527-1.748,1.073-2.594,1.647
			c-0.123,0.083-0.24,0.173-0.361,0.257c-0.729,0.503-1.443,1.023-2.145,1.56c-0.264,0.202-0.523,0.41-0.784,0.615
			c-0.575,0.457-1.14,0.925-1.696,1.404c-0.244,0.211-0.491,0.418-0.732,0.634c-0.743,0.664-1.473,1.343-2.179,2.047
			c-0.037,0.037-0.075,0.075-0.112,0.112c-0.704,0.706-1.383,1.436-2.047,2.18c-0.215,0.24-0.423,0.486-0.634,0.732
			c-0.479,0.555-0.947,1.12-1.404,1.695c-0.207,0.261-0.414,0.52-0.617,0.785c-0.537,0.701-1.056,1.416-1.559,2.144
			c-0.085,0.123-0.175,0.24-0.259,0.364c-0.574,0.847-1.12,1.713-1.646,2.594c-0.156,0.259-0.301,0.524-0.453,0.786
			c-0.376,0.653-0.74,1.313-1.089,1.982c-0.156,0.298-0.31,0.597-0.461,0.898c-0.371,0.744-0.724,1.499-1.06,2.263
			c-0.087,0.196-0.18,0.387-0.264,0.584c-0.408,0.953-0.786,1.921-1.139,2.902c-0.094,0.259-0.176,0.523-0.266,0.783
			c-0.256,0.746-0.497,1.499-0.722,2.259c-0.049,0.168-0.111,0.331-0.159,0.5H170.261c-0.077-0.271-0.165-0.537-0.247-0.806
			c-0.085-0.283-0.169-0.564-0.259-0.845c-0.177-0.556-0.366-1.108-0.561-1.657c-0.08-0.225-0.155-0.453-0.238-0.676
			c-0.284-0.767-0.582-1.527-0.9-2.277c-0.034-0.082-0.073-0.159-0.107-0.24c-0.287-0.668-0.585-1.328-0.897-1.981
			c-0.113-0.236-0.232-0.469-0.349-0.703c-0.246-0.497-0.497-0.992-0.759-1.48c-0.138-0.258-0.279-0.513-0.42-0.769
			c-0.261-0.47-0.529-0.934-0.803-1.395c-0.144-0.242-0.286-0.484-0.434-0.724c-0.315-0.512-0.641-1.015-0.973-1.516
			c-0.114-0.172-0.224-0.348-0.34-0.519c-0.454-0.669-0.922-1.327-1.404-1.973c-0.084-0.112-0.172-0.221-0.257-0.332
			c-0.402-0.53-0.811-1.053-1.232-1.567c-0.167-0.205-0.341-0.406-0.511-0.608c-0.352-0.418-0.708-0.83-1.071-1.237
			c-0.192-0.215-0.386-0.427-0.582-0.639c-0.366-0.396-0.738-0.786-1.117-1.171c-0.191-0.195-0.38-0.39-0.573-0.582
			c-0.445-0.441-0.9-0.871-1.36-1.297c-0.131-0.121-0.257-0.245-0.389-0.365c-0.597-0.541-1.205-1.068-1.826-1.582
			c-0.14-0.115-0.284-0.225-0.424-0.34c-0.483-0.393-0.973-0.78-1.47-1.156c-0.22-0.165-0.442-0.327-0.664-0.489
			c-0.434-0.318-0.873-0.631-1.317-0.937c-0.239-0.164-0.479-0.328-0.722-0.489c-0.453-0.301-0.912-0.595-1.375-0.882
			c-0.228-0.143-0.456-0.287-0.686-0.426c-0.568-0.343-1.144-0.673-1.725-0.993c-0.127-0.07-0.25-0.145-0.378-0.215
			c-0.712-0.386-1.434-0.755-2.164-1.11c-0.194-0.095-0.392-0.181-0.588-0.273c-0.541-0.254-1.084-0.503-1.633-0.739
			c-0.264-0.114-0.531-0.223-0.797-0.332c-0.497-0.205-0.997-0.403-1.502-0.594c-0.279-0.105-0.557-0.209-0.839-0.309
			c-0.524-0.187-1.052-0.365-1.582-0.537c-0.256-0.083-0.51-0.169-0.767-0.248c-0.695-0.214-1.396-0.413-2.103-0.599
			c-0.093-0.024-0.183-0.053-0.275-0.077c-0.799-0.206-1.607-0.39-2.42-0.56c-0.242-0.05-0.486-0.092-0.73-0.14
			c-0.577-0.112-1.157-0.218-1.741-0.311c-0.299-0.048-0.601-0.091-0.902-0.134c-0.543-0.078-1.088-0.147-1.635-0.208
			c-0.308-0.034-0.616-0.069-0.927-0.098c-0.579-0.055-1.161-0.097-1.745-0.133c-0.272-0.017-0.542-0.039-0.814-0.051
			c-0.853-0.036-1.71-0.061-2.573-0.061c-0.863,0-1.72,0.025-2.573,0.065c-0.273,0.013-0.543,0.034-0.814,0.051
			c-0.584,0.036-1.166,0.079-1.745,0.133c-0.31,0.029-0.618,0.063-0.927,0.097c-0.547,0.061-1.093,0.131-1.635,0.208
			c-0.301,0.043-0.603,0.086-0.902,0.134c-0.584,0.094-1.163,0.2-1.741,0.311c-0.243,0.047-0.487,0.09-0.73,0.14
			c-0.813,0.169-1.621,0.354-2.42,0.56c-0.093,0.024-0.183,0.052-0.275,0.077c-0.707,0.186-1.408,0.386-2.103,0.599
			c-0.257,0.079-0.512,0.165-0.767,0.248c-0.531,0.171-1.059,0.349-1.582,0.537c-0.281,0.1-0.56,0.205-0.839,0.309
			c-0.504,0.19-1.004,0.389-1.502,0.594c-0.266,0.109-0.533,0.218-0.797,0.332c-0.549,0.236-1.093,0.485-1.633,0.739
			c-0.195,0.093-0.394,0.179-0.588,0.273c-0.731,0.354-1.452,0.724-2.164,1.11c-0.127,0.069-0.251,0.144-0.378,0.215
			c-0.581,0.321-1.157,0.651-1.725,0.993c-0.231,0.139-0.458,0.284-0.686,0.426c-0.463,0.287-0.922,0.581-1.375,0.882
			c-0.242,0.161-0.482,0.324-0.722,0.489c-0.444,0.306-0.882,0.618-1.317,0.937c-0.222,0.162-0.444,0.324-0.664,0.489
			c-0.497,0.376-0.986,0.763-1.47,1.156c-0.141,0.114-0.285,0.224-0.424,0.34c-0.62,0.514-1.23,1.042-1.826,1.582
			c-0.132,0.12-0.258,0.244-0.389,0.365c-0.46,0.425-0.915,0.856-1.36,1.297c-0.194,0.191-0.383,0.387-0.573,0.582
			c-0.378,0.385-0.75,0.775-1.117,1.171c-0.196,0.212-0.39,0.424-0.582,0.639c-0.364,0.407-0.72,0.82-1.071,1.237
			c-0.17,0.203-0.344,0.403-0.511,0.609c-0.42,0.514-0.83,1.037-1.232,1.567c-0.085,0.111-0.173,0.22-0.257,0.332
			c-0.482,0.647-0.95,1.306-1.404,1.973c-0.116,0.171-0.225,0.347-0.34,0.519c-0.332,0.5-0.658,1.004-0.973,1.516
			c-0.148,0.239-0.29,0.481-0.434,0.724c-0.274,0.461-0.543,0.925-0.803,1.395c-0.142,0.255-0.283,0.511-0.42,0.769
			c-0.261,0.488-0.512,0.983-0.759,1.48c-0.116,0.234-0.235,0.467-0.349,0.703c-0.312,0.654-0.61,1.313-0.897,1.981
			c-0.034,0.081-0.073,0.159-0.107,0.24c-0.317,0.75-0.615,1.51-0.9,2.277c-0.083,0.224-0.158,0.451-0.238,0.676
			c-0.195,0.549-0.384,1.1-0.561,1.657c-0.09,0.281-0.173,0.562-0.259,0.845c-0.081,0.269-0.17,0.535-0.247,0.806H34.462
			c-2.715-0.002-4.923-2.211-4.923-4.925V137.846c0-2.715,2.208-4.923,4.923-4.923h300.308c2.715,0,4.923,2.208,4.923,4.923v39.385
			v125.124c-0.164,0.046-0.323,0.107-0.486,0.156c-0.771,0.227-1.533,0.472-2.288,0.731c-0.253,0.087-0.509,0.167-0.761,0.258
			c-0.984,0.354-1.954,0.734-2.911,1.142c-0.191,0.082-0.376,0.172-0.566,0.256c-0.769,0.34-1.529,0.695-2.279,1.068
			c-0.3,0.15-0.597,0.303-0.893,0.458C328.836,306.773,328.174,307.137,327.52,307.514z M354.462,379.077
			c-13.573,0-24.615-11.042-24.615-24.615s11.042-24.615,24.615-24.615s24.615,11.042,24.615,24.615
			S368.034,379.077,354.462,379.077z M482.462,334.769c0,2.715-2.208,4.923-4.923,4.923h-70.97c-0.048-0.168-0.11-0.332-0.159-0.5
			c-0.224-0.76-0.466-1.512-0.722-2.259c-0.09-0.261-0.172-0.525-0.266-0.783c-0.354-0.981-0.732-1.949-1.139-2.902
			c-0.084-0.197-0.178-0.388-0.264-0.584c-0.337-0.763-0.69-1.518-1.06-2.263c-0.15-0.301-0.305-0.6-0.461-0.898
			c-0.35-0.67-0.713-1.329-1.089-1.982c-0.151-0.262-0.297-0.527-0.453-0.786c-0.527-0.88-1.072-1.747-1.646-2.594
			c-0.084-0.123-0.174-0.241-0.259-0.364c-0.502-0.728-1.022-1.441-1.559-2.144c-0.202-0.265-0.41-0.524-0.617-0.785
			c-0.457-0.575-0.925-1.14-1.404-1.695c-0.211-0.245-0.418-0.491-0.634-0.732c-0.665-0.743-1.344-1.474-2.047-2.18
			c-0.037-0.037-0.075-0.075-0.112-0.112c-0.706-0.704-1.436-1.382-2.179-2.047c-0.241-0.216-0.487-0.423-0.732-0.634
			c-0.556-0.479-1.12-0.947-1.696-1.404c-0.26-0.207-0.52-0.414-0.784-0.615c-0.702-0.537-1.417-1.057-2.145-1.56
			c-0.122-0.084-0.239-0.174-0.361-0.257c-0.847-0.574-1.714-1.12-2.594-1.647c-0.259-0.155-0.523-0.3-0.784-0.451
			c-0.654-0.377-1.315-0.74-1.986-1.091c-0.296-0.155-0.593-0.308-0.893-0.458c-0.75-0.373-1.51-0.729-2.279-1.068
			c-0.19-0.084-0.375-0.174-0.566-0.256c-0.956-0.409-1.928-0.788-2.911-1.142c-0.251-0.091-0.508-0.171-0.761-0.258
			c-0.756-0.26-1.518-0.504-2.288-0.731c-0.163-0.048-0.322-0.108-0.486-0.156v-51.28h100.727l12.506,27.786V334.769z"/>
	</g>
</g>
<g>
	<g>
		<path d="M96,221.538H81.231v-9.846H96c8.157,0,14.769-6.613,14.769-14.769S104.157,182.154,96,182.154H66.462
			c-8.157,0-14.769,6.613-14.769,14.769v78.769c0,8.157,6.613,14.769,14.769,14.769s14.769-6.613,14.769-14.769v-24.615H96
			c8.157,0,14.769-6.613,14.769-14.769S104.157,221.538,96,221.538z"/>
	</g>
</g>
<g>
	<g>
		<path d="M233.846,251.077c8.157,0,14.769-6.613,14.769-14.769s-6.613-14.769-14.769-14.769h-14.769v-9.846h14.769
			c8.157,0,14.769-6.613,14.769-14.769s-6.613-14.769-14.769-14.769h-29.538c-8.157,0-14.769,6.613-14.769,14.769v78.769
			c0,8.157,6.613,14.769,14.769,14.769h29.538c8.157,0,14.769-6.613,14.769-14.769s-6.613-14.769-14.769-14.769h-14.769v-9.846
			H233.846z"/>
	</g>
</g>
<g>
	<g>
		<path d="M302.769,251.077c8.157,0,14.769-6.613,14.769-14.769s-6.613-14.769-14.769-14.769H288v-9.846h14.769
			c8.157,0,14.769-6.613,14.769-14.769s-6.613-14.769-14.769-14.769h-29.538c-8.157,0-14.769,6.613-14.769,14.769v78.769
			c0,8.157,6.613,14.769,14.769,14.769h29.538c8.157,0,14.769-6.613,14.769-14.769s-6.613-14.769-14.769-14.769H288v-9.846H302.769z
			"/>
	</g>
</g>
<g>
	<g>
		<path d="M161.753,246.849c10.681-5.86,17.94-17.214,17.94-30.234c0-19.002-15.459-34.461-34.462-34.461h-9.846
			c-8.157,0-14.769,6.613-14.769,14.769v78.769c0,8.157,6.613,14.769,14.769,14.769c6.722,0,12.385-4.496,14.173-10.641l3.55,4.733
			c2.902,3.87,7.336,5.909,11.827,5.909c3.083,0,6.193-0.963,8.85-2.955c6.525-4.895,7.848-14.152,2.954-20.677L161.753,246.849z"/>
	</g>
</g>
<g>
</g>
<g>
</g>
<g>
</g>
<g>
</g>
<g>
</g>
<g>
</g>
<g>
</g>
<g>
</g>
<g>
</g>
<g>
</g>
<g>
</g>
<g>
</g>
<g>
</g>
<g>
</g>
<g>
</g>
</svg>
