<?xml version="1.0" encoding="iso-8859-1"?>
<!-- Generator: Adobe Illustrator 19.0.0, SVG Export Plug-In . SVG Version: 6.00 Build 0)  -->
<svg version="1.1" id="Capa_1" xmlns="http://www.w3.org/2000/svg" xmlns:xlink="http://www.w3.org/1999/xlink" x="0px" y="0px"
	 viewBox="0 0 512.001 512.001" style="enable-background:new 0 0 512.001 512.001;" xml:space="preserve">
<g>
	<g>
		<path d="M398.769,112.862H113.231C50.795,112.862,0,163.657,0,226.093v59.077c0,0.371,0.014,0.738,0.04,1.103
			c0.724,30.169,12.955,58.416,34.499,79.625c21.774,21.436,50.594,33.242,81.153,33.242s59.379-11.805,81.153-33.242
			c18.255-17.971,29.823-40.993,33.371-65.958h51.569c3.548,24.965,15.116,47.987,33.371,65.958
			c21.774,21.436,50.594,33.242,81.153,33.242s59.379-11.805,81.153-33.242c21.542-21.208,33.774-49.456,34.499-79.623
			c0.027-0.364,0.04-0.733,0.04-1.105v-59.077C512,163.657,461.205,112.862,398.769,112.862z M482.463,284.375L482.463,284.375
			c-0.011,0.182-0.018,0.363-0.021,0.546c-0.783,46.692-39.422,84.679-86.134,84.679c-46.712,0-85.352-37.986-86.134-84.679
			c-0.136-8.059-6.707-14.521-14.767-14.521h-78.812c-8.061,0-14.631,6.462-14.767,14.521
			c-0.783,46.692-39.422,84.679-86.134,84.679c-46.712,0-85.352-37.986-86.134-84.679c-0.003-0.183-0.01-0.364-0.02-0.545v-58.283
			c0-46.148,37.544-83.692,83.692-83.692H398.77c46.148,0,83.692,37.544,83.692,83.692V284.375z"/>
	</g>
</g>
<g>
	<g>
		<path d="M155.077,241.231h-24.615v-24.615c0-8.156-6.613-14.769-14.769-14.769s-14.769,6.613-14.769,14.769v24.615H76.308
			c-8.157,0-14.769,6.613-14.769,14.769s6.613,14.769,14.769,14.769h24.615v24.615c0,8.156,6.613,14.769,14.769,14.769
			s14.769-6.613,14.769-14.769V270.77h24.615c8.157,0,14.769-6.613,14.769-14.769S163.233,241.231,155.077,241.231z"/>
	</g>
</g>
<g>
	<g>
		<path d="M411.009,215.169c-0.05-0.483-0.129-0.966-0.218-1.439c-0.099-0.472-0.217-0.945-0.354-1.398
			c-0.138-0.463-0.305-0.916-0.492-1.369c-0.186-0.443-0.393-0.876-0.61-1.3c-0.225-0.423-0.482-0.846-0.748-1.241
			c-0.266-0.404-0.551-0.798-0.857-1.171c-0.305-0.375-0.639-0.738-0.975-1.074c-0.345-0.345-0.709-0.67-1.083-0.985
			c-0.364-0.295-0.758-0.591-1.162-0.856c-0.404-0.267-0.817-0.513-1.242-0.738c-0.423-0.226-0.866-0.433-1.309-0.621
			c-0.443-0.186-0.907-0.345-1.36-0.492c-0.463-0.138-0.934-0.256-1.408-0.353c-0.472-0.089-0.955-0.167-1.428-0.218
			c-0.964-0.089-1.949-0.089-2.904,0c-0.482,0.05-0.965,0.129-1.438,0.218c-0.472,0.098-0.945,0.217-1.398,0.353
			c-0.463,0.148-0.925,0.306-1.369,0.492c-0.443,0.187-0.876,0.394-1.3,0.621c-0.432,0.225-0.846,0.472-1.25,0.738
			c-0.394,0.266-0.788,0.56-1.162,0.856c-0.375,0.315-0.738,0.64-1.074,0.985c-0.345,0.336-0.67,0.699-0.985,1.074
			c-0.295,0.374-0.591,0.767-0.856,1.171c-0.267,0.394-0.513,0.817-0.738,1.241c-0.227,0.424-0.433,0.857-0.621,1.3
			c-0.177,0.453-0.345,0.906-0.481,1.369c-0.148,0.453-0.267,0.926-0.354,1.398c-0.098,0.473-0.167,0.956-0.217,1.438
			c-0.049,0.482-0.079,0.964-0.079,1.447c0,0.483,0.03,0.975,0.079,1.456c0.049,0.473,0.118,0.956,0.217,1.428
			c0.089,0.473,0.207,0.945,0.354,1.408c0.138,0.453,0.305,0.917,0.481,1.36c0.187,0.442,0.394,0.885,0.621,1.299
			c0.225,0.433,0.472,0.847,0.738,1.251c0.266,0.393,0.56,0.788,0.856,1.162c0.315,0.374,0.64,0.738,0.985,1.083
			c0.336,0.336,0.699,0.671,1.074,0.975c0.374,0.306,0.767,0.592,1.162,0.857c0.404,0.267,0.817,0.522,1.25,0.748
			c0.424,0.218,0.857,0.433,1.3,0.61c0.443,0.187,0.906,0.354,1.369,0.492c0.453,0.139,0.926,0.256,1.398,0.354
			c0.473,0.089,0.956,0.167,1.438,0.217c0.482,0.049,0.964,0.069,1.447,0.069s0.975-0.021,1.456-0.069
			c0.473-0.049,0.956-0.128,1.428-0.217c0.473-0.099,0.945-0.217,1.408-0.354c0.453-0.138,0.917-0.305,1.36-0.492
			c0.442-0.177,0.885-0.393,1.309-0.61c0.424-0.226,0.838-0.482,1.242-0.748c0.404-0.266,0.788-0.551,1.162-0.857
			s0.738-0.639,1.083-0.975c2.747-2.757,4.323-6.557,4.323-10.446C411.078,216.134,411.057,215.652,411.009,215.169z"/>
	</g>
</g>
<g>
	<g>
		<path d="M411.008,293.927c-0.049-0.472-0.128-0.954-0.217-1.428c-0.099-0.472-0.217-0.945-0.354-1.408
			c-0.147-0.453-0.305-0.916-0.492-1.359c-0.186-0.443-0.393-0.886-0.61-1.31c-0.225-0.423-0.482-0.837-0.748-1.241
			c-0.266-0.404-0.551-0.788-0.857-1.162c-0.305-0.375-0.639-0.738-0.975-1.084c-0.345-0.335-0.709-0.669-1.083-0.975
			c-0.364-0.305-0.758-0.591-1.162-0.857c-0.404-0.266-0.817-0.521-1.242-0.748c-0.423-0.217-0.866-0.423-1.309-0.61
			c-0.443-0.186-0.907-0.345-1.36-0.492c-0.463-0.138-0.934-0.256-1.408-0.353c-0.472-0.089-0.955-0.167-1.428-0.218
			c-0.964-0.089-1.94-0.089-2.904,0c-0.482,0.05-0.965,0.129-1.438,0.218c-0.472,0.098-0.945,0.217-1.398,0.353
			c-0.463,0.148-0.916,0.306-1.369,0.492c-0.443,0.187-0.876,0.394-1.3,0.61c-0.423,0.226-0.846,0.482-1.241,0.748
			c-0.404,0.267-0.798,0.552-1.171,0.857c-0.375,0.306-0.738,0.64-1.074,0.975c-0.345,0.346-0.67,0.709-0.985,1.084
			c-0.295,0.374-0.591,0.758-0.856,1.162c-0.267,0.404-0.513,0.817-0.738,1.241c-0.226,0.423-0.433,0.866-0.621,1.31
			c-0.186,0.443-0.345,0.906-0.492,1.359c-0.138,0.463-0.256,0.935-0.353,1.408c-0.089,0.473-0.167,0.956-0.207,1.428
			c-0.049,0.482-0.079,0.975-0.079,1.457s0.03,0.964,0.079,1.447c0.039,0.482,0.118,0.965,0.207,1.438
			c0.098,0.473,0.217,0.945,0.353,1.408c0.148,0.453,0.306,0.917,0.492,1.36c0.187,0.442,0.394,0.876,0.621,1.299
			c0.226,0.424,0.472,0.847,0.738,1.251c0.266,0.393,0.56,0.788,0.856,1.162c0.315,0.374,0.64,0.738,0.985,1.073
			c0.336,0.346,0.699,0.67,1.074,0.985c0.374,0.295,0.767,0.592,1.171,0.857c0.394,0.267,0.817,0.513,1.241,0.738
			c0.424,0.226,0.857,0.433,1.31,0.62c0.443,0.187,0.896,0.346,1.359,0.492c0.453,0.139,0.926,0.256,1.398,0.354
			c0.473,0.089,0.956,0.167,1.439,0.207c0.482,0.049,0.964,0.079,1.447,0.079c0.483,0,0.975-0.03,1.456-0.079
			c0.473-0.039,0.956-0.118,1.428-0.207c0.473-0.099,0.945-0.217,1.408-0.354c0.453-0.147,0.917-0.305,1.36-0.492
			c0.442-0.186,0.885-0.393,1.309-0.62c0.424-0.225,0.838-0.472,1.242-0.738c0.404-0.266,0.788-0.561,1.162-0.857
			c0.374-0.315,0.738-0.639,1.083-0.985c0.336-0.335,0.671-0.699,0.975-1.073c0.306-0.374,0.592-0.768,0.857-1.162
			c0.267-0.404,0.522-0.827,0.748-1.251c0.218-0.423,0.424-0.857,0.61-1.299c0.187-0.443,0.346-0.907,0.492-1.36
			c0.139-0.463,0.256-0.934,0.354-1.408c0.089-0.472,0.167-0.955,0.217-1.438c0.049-0.482,0.069-0.964,0.069-1.447
			S411.056,294.409,411.008,293.927z"/>
	</g>
</g>
<g>
	<g>
		<path d="M371.623,254.542c-0.049-0.472-0.118-0.954-0.217-1.428c-0.099-0.472-0.217-0.945-0.354-1.398
			c-0.138-0.463-0.305-0.925-0.492-1.369c-0.177-0.443-0.384-0.876-0.61-1.3c-0.225-0.432-0.481-0.846-0.748-1.25
			c-0.266-0.394-0.551-0.788-0.857-1.162c-0.305-0.375-0.63-0.738-0.975-1.084c-0.345-0.335-0.709-0.67-1.083-0.975
			c-0.364-0.305-0.758-0.591-1.162-0.857c-0.404-0.266-0.817-0.512-1.242-0.738c-0.423-0.226-0.866-0.432-1.309-0.62
			c-0.443-0.186-0.907-0.345-1.36-0.492c-0.463-0.138-0.934-0.256-1.408-0.353c-0.472-0.089-0.955-0.167-1.428-0.218
			c-0.964-0.098-1.949-0.098-2.904,0c-0.482,0.05-0.965,0.129-1.439,0.218c-0.472,0.098-0.945,0.217-1.398,0.353
			c-0.463,0.148-0.916,0.306-1.369,0.492c-0.443,0.187-0.876,0.394-1.3,0.62c-0.423,0.226-0.846,0.473-1.241,0.738
			c-0.404,0.267-0.798,0.552-1.171,0.857c-0.375,0.306-0.738,0.64-1.074,0.975c-0.345,0.346-0.669,0.709-0.985,1.084
			c-0.295,0.374-0.591,0.767-0.856,1.162c-0.267,0.404-0.513,0.817-0.738,1.25c-0.227,0.424-0.433,0.857-0.621,1.3
			c-0.186,0.443-0.345,0.906-0.492,1.369c-0.138,0.453-0.256,0.926-0.354,1.398c-0.089,0.473-0.167,0.956-0.207,1.428
			c-0.049,0.482-0.079,0.975-0.079,1.457s0.03,0.975,0.079,1.456c0.039,0.473,0.118,0.956,0.207,1.428
			c0.098,0.473,0.217,0.945,0.354,1.408c0.148,0.453,0.306,0.917,0.492,1.36c0.187,0.442,0.394,0.876,0.621,1.299
			c0.225,0.433,0.472,0.847,0.738,1.251c0.266,0.393,0.56,0.788,0.856,1.162c0.315,0.374,0.64,0.738,0.985,1.073
			c0.336,0.346,0.699,0.669,1.074,0.985c0.374,0.295,0.767,0.592,1.171,0.857c0.394,0.267,0.817,0.513,1.241,0.738
			c0.424,0.227,0.857,0.433,1.3,0.62c0.453,0.187,0.906,0.346,1.369,0.492c0.453,0.139,0.926,0.256,1.398,0.346
			c0.473,0.098,0.956,0.177,1.439,0.217c0.481,0.049,0.964,0.079,1.447,0.079c0.483,0,0.975-0.03,1.456-0.079
			c0.473-0.039,0.956-0.118,1.428-0.217c0.473-0.09,0.945-0.207,1.408-0.346c0.453-0.147,0.917-0.305,1.36-0.492
			c0.442-0.186,0.885-0.393,1.309-0.62c0.424-0.225,0.838-0.472,1.242-0.738c0.404-0.266,0.798-0.561,1.162-0.857
			c0.374-0.315,0.738-0.639,1.083-0.985c0.346-0.335,0.671-0.699,0.975-1.073c0.306-0.374,0.592-0.768,0.857-1.162
			c0.267-0.404,0.522-0.817,0.748-1.251c0.227-0.423,0.433-0.857,0.61-1.299c0.187-0.443,0.354-0.907,0.492-1.36
			c0.139-0.463,0.256-0.934,0.354-1.408c0.099-0.472,0.167-0.955,0.217-1.428c0.049-0.481,0.069-0.974,0.069-1.456
			C371.692,255.517,371.672,255.025,371.623,254.542z"/>
	</g>
</g>
<g>
	<g>
		<path d="M450.393,254.542c-0.049-0.472-0.118-0.954-0.217-1.428c-0.099-0.472-0.217-0.945-0.354-1.398
			c-0.138-0.463-0.305-0.925-0.492-1.369c-0.186-0.443-0.393-0.876-0.62-1.3c-0.225-0.432-0.472-0.846-0.738-1.25
			c-0.266-0.394-0.551-0.788-0.857-1.162c-0.314-0.375-0.639-0.738-0.975-1.084c-0.345-0.335-0.709-0.67-1.083-0.975
			c-0.374-0.305-0.768-0.591-1.162-0.857c-0.404-0.266-0.817-0.512-1.251-0.738c-0.414-0.226-0.857-0.432-1.299-0.62
			c-0.443-0.186-0.907-0.345-1.36-0.492c-0.463-0.138-0.934-0.256-1.408-0.353c-0.472-0.089-0.955-0.167-1.428-0.218
			c-4.371-0.442-8.811,1.163-11.904,4.254c-0.335,0.346-0.67,0.709-0.975,1.084c-0.305,0.374-0.591,0.767-0.856,1.162
			c-0.267,0.404-0.513,0.817-0.738,1.25c-0.227,0.424-0.433,0.857-0.621,1.3c-0.186,0.443-0.345,0.906-0.492,1.369
			c-0.138,0.453-0.256,0.926-0.354,1.398c-0.089,0.473-0.167,0.956-0.218,1.428c-0.049,0.482-0.068,0.975-0.068,1.457
			s0.02,0.975,0.068,1.456c0.05,0.473,0.129,0.956,0.218,1.428c0.098,0.473,0.217,0.945,0.354,1.408
			c0.148,0.453,0.306,0.917,0.492,1.36c0.187,0.442,0.394,0.876,0.621,1.299c0.225,0.433,0.472,0.847,0.738,1.251
			c0.266,0.393,0.551,0.788,0.856,1.162c0.306,0.374,0.64,0.738,0.975,1.073c0.346,0.346,0.709,0.67,1.084,0.985
			c0.374,0.295,0.767,0.592,1.162,0.857c0.404,0.267,0.817,0.513,1.25,0.738c0.424,0.227,0.857,0.433,1.3,0.62
			c0.443,0.187,0.906,0.346,1.369,0.492c0.453,0.139,0.926,0.256,1.398,0.346c0.473,0.098,0.956,0.177,1.428,0.217
			c0.482,0.049,0.975,0.079,1.457,0.079s0.975-0.03,1.456-0.079c0.473-0.039,0.956-0.118,1.428-0.217
			c0.473-0.09,0.945-0.207,1.408-0.346c0.453-0.147,0.917-0.305,1.36-0.492c0.442-0.186,0.885-0.393,1.299-0.62
			c0.433-0.225,0.847-0.472,1.251-0.738c0.393-0.266,0.788-0.561,1.162-0.857c0.374-0.315,0.738-0.639,1.083-0.985
			c0.336-0.335,0.661-0.699,0.975-1.073c0.306-0.374,0.592-0.768,0.857-1.162c0.267-0.404,0.513-0.817,0.738-1.251
			c0.227-0.423,0.433-0.857,0.62-1.299c0.187-0.443,0.354-0.907,0.492-1.36c0.139-0.463,0.256-0.934,0.354-1.408
			c0.099-0.472,0.167-0.955,0.217-1.428c0.049-0.482,0.069-0.974,0.069-1.456C450.462,255.517,450.441,255.025,450.393,254.542z"/>
	</g>
</g>
<g>
	<g>
		<path d="M226.462,182.154h-9.846c-8.156,0-14.769,6.613-14.769,14.769s6.613,14.769,14.769,14.769h9.846
			c8.157,0,14.769-6.613,14.769-14.769S234.618,182.154,226.462,182.154z"/>
	</g>
</g>
<g>
	<g>
		<path d="M295.385,182.154h-9.846c-8.157,0-14.769,6.613-14.769,14.769s6.613,14.769,14.769,14.769h9.846
			c8.156,0,14.769-6.613,14.769-14.769S303.541,182.154,295.385,182.154z"/>
	</g>
</g>
<g>
</g>
<g>
</g>
<g>
</g>
<g>
</g>
<g>
</g>
<g>
</g>
<g>
</g>
<g>
</g>
<g>
</g>
<g>
</g>
<g>
</g>
<g>
</g>
<g>
</g>
<g>
</g>
<g>
</g>
</svg>
