<?xml version="1.0" encoding="iso-8859-1"?>
<!-- Generator: Adobe Illustrator 19.0.0, SVG Export Plug-In . SVG Version: 6.00 Build 0)  -->
<svg version="1.1" id="Capa_1" xmlns="http://www.w3.org/2000/svg" xmlns:xlink="http://www.w3.org/1999/xlink" x="0px" y="0px"
	 viewBox="0 0 512 512" style="enable-background:new 0 0 512 512;" xml:space="preserve">
<g>
	<g>
		<path d="M334.769,221.539h-4.923v-44.308c0-8.157-6.613-14.769-14.769-14.769h-4.923V14.77c0-4.698-2.236-9.117-6.021-11.899
			c-3.786-2.784-8.67-3.601-13.152-2.198L226.028,20.97c-14.463,4.52-24.182,17.739-24.182,32.893v108.599h-4.923
			c-8.157,0-14.769,6.613-14.769,14.769v44.308h-4.923c-8.156,0-14.769,6.613-14.769,14.769v260.923
			c0,8.157,6.613,14.769,14.769,14.769h157.538c8.156,0,14.769-6.613,14.769-14.769V236.308
			C349.538,228.151,342.927,221.539,334.769,221.539z M231.385,53.863c0-2.165,1.388-4.054,3.454-4.699l45.777-14.306v127.604
			h-49.231V53.863z M211.692,192h88.615v29.538h-88.615V192z M320,482.461H192v-24.615h128V482.461z M320,428.308H192v-177.23h128
			V428.308z"/>
	</g>
</g>
<g>
</g>
<g>
</g>
<g>
</g>
<g>
</g>
<g>
</g>
<g>
</g>
<g>
</g>
<g>
</g>
<g>
</g>
<g>
</g>
<g>
</g>
<g>
</g>
<g>
</g>
<g>
</g>
<g>
</g>
</svg>
