<?xml version="1.0" encoding="iso-8859-1"?>
<!-- Generator: Adobe Illustrator 19.0.0, SVG Export Plug-In . SVG Version: 6.00 Build 0)  -->
<svg version="1.1" id="Capa_1" xmlns="http://www.w3.org/2000/svg" xmlns:xlink="http://www.w3.org/1999/xlink" x="0px" y="0px"
	 viewBox="0 0 512 512" style="enable-background:new 0 0 512 512;" xml:space="preserve">
<g>
	<g>
		<path d="M346.585,225.805l-46.769-62.359c-2.789-3.719-7.166-5.908-11.815-5.908h-93.538c-4.648,0-9.026,2.189-11.815,5.908
			l-46.769,62.359c-1.917,2.557-2.954,5.666-2.954,8.862v42.667c0,3.195,1.037,6.305,2.954,8.862l46.769,62.359
			c2.789,3.719,7.167,5.908,11.815,5.908H288c4.649,0,9.026-2.189,11.815-5.908l46.769-62.359c1.917-2.557,2.954-5.666,2.954-8.862
			v-42.667C349.538,231.471,348.502,228.362,346.585,225.805z M320,272.411l-39.385,52.513h-78.769l-39.385-52.513v-32.821
			l39.385-52.513h78.769L320,239.589V272.411z"/>
	</g>
</g>
<g>
	<g>
		<path d="M271.366,265.248L256,249.883v-33.267c0-8.156-6.613-14.769-14.769-14.769s-14.769,6.613-14.769,14.769V256
			c0,3.918,1.557,7.674,4.326,10.443l19.692,19.692c2.883,2.884,6.663,4.326,10.443,4.326c3.78,0,7.56-1.442,10.443-4.326
			C277.134,280.368,277.134,271.016,271.366,265.248z"/>
	</g>
</g>
<g>
	<g>
		<path d="M418.462,241.231h-14.769v-24.615c0-3.195-1.037-6.304-2.954-8.862l-73.846-98.462c-2.789-3.719-7.166-5.908-11.815-5.908
			V34.462C315.077,15.459,299.617,0,280.615,0h-78.769c-19.002,0-34.461,15.459-34.461,34.462v68.923
			c-4.648,0-9.026,2.189-11.815,5.908l-73.846,98.462c-1.917,2.557-2.954,5.666-2.954,8.862v78.769c0,3.195,1.037,6.305,2.954,8.862
			l73.846,98.462c2.789,3.719,7.167,5.908,11.815,5.908v68.923c0,19.002,15.459,34.462,34.461,34.462h78.769
			c19.002,0,34.462-15.459,34.462-34.462v-68.923c4.649,0,9.026-2.189,11.815-5.908l73.846-98.462
			c1.917-2.557,2.954-5.666,2.954-8.862v-24.615h14.769c8.157,0,14.769-6.613,14.769-14.769S426.618,241.231,418.462,241.231z
			 M196.923,34.462c0-2.715,2.208-4.923,4.923-4.923h78.769c2.715,0,4.923,2.208,4.923,4.923v68.923h-88.615V34.462z
			 M285.538,477.538c0,2.715-2.208,4.923-4.923,4.923h-78.769c-2.715,0-4.923-2.208-4.923-4.923v-68.923h88.615V477.538z
			 M374.154,290.462l-66.462,88.615H174.769l-66.462-88.615v-68.923l66.462-88.615h132.923l66.462,88.615V290.462z"/>
	</g>
</g>
<g>
</g>
<g>
</g>
<g>
</g>
<g>
</g>
<g>
</g>
<g>
</g>
<g>
</g>
<g>
</g>
<g>
</g>
<g>
</g>
<g>
</g>
<g>
</g>
<g>
</g>
<g>
</g>
<g>
</g>
</svg>
