<?xml version="1.0" encoding="iso-8859-1"?>
<!-- Generator: Adobe Illustrator 19.0.0, SVG Export Plug-In . SVG Version: 6.00 Build 0)  -->
<svg version="1.1" id="Capa_1" xmlns="http://www.w3.org/2000/svg" xmlns:xlink="http://www.w3.org/1999/xlink" x="0px" y="0px"
	 viewBox="0 0 512 512" style="enable-background:new 0 0 512 512;" xml:space="preserve">
<g>
	<g>
		<path d="M413.538,0H98.462c-8.157,0-14.769,6.613-14.769,14.769v482.462c0,8.157,6.613,14.769,14.769,14.769h98.462
			c7.058,0,13.129-4.993,14.492-11.918L256,273.439l44.585,226.644c1.363,6.925,7.434,11.918,14.492,11.918h98.462
			c8.157,0,14.769-6.613,14.769-14.769V14.769C428.308,6.613,421.695,0,413.538,0z M113.231,93.538h29.538v36.404l-29.538,19.692
			V93.538z M398.769,482.462h-71.546l-56.733-288.39c-1.362-6.925-7.433-11.918-14.491-11.918c-7.058,0-13.129,4.993-14.492,11.918
			l-56.732,288.39h-71.546V185.134l52.5-35c4.109-2.738,6.577-7.35,6.577-12.288V93.538h167.385v44.308
			c0,4.939,2.467,9.55,6.577,12.288l52.5,35V482.462z M398.769,149.635l-29.538-19.692V93.538h29.538V149.635z M398.769,64H113.231
			V29.538h285.538V64z"/>
	</g>
</g>
<g>
</g>
<g>
</g>
<g>
</g>
<g>
</g>
<g>
</g>
<g>
</g>
<g>
</g>
<g>
</g>
<g>
</g>
<g>
</g>
<g>
</g>
<g>
</g>
<g>
</g>
<g>
</g>
<g>
</g>
</svg>
