<?xml version="1.0" encoding="iso-8859-1"?>
<!-- Generator: Adobe Illustrator 19.0.0, SVG Export Plug-In . SVG Version: 6.00 Build 0)  -->
<svg version="1.1" id="Capa_1" xmlns="http://www.w3.org/2000/svg" xmlns:xlink="http://www.w3.org/1999/xlink" x="0px" y="0px"
	 viewBox="0 0 512.001 512.001" style="enable-background:new 0 0 512.001 512.001;" xml:space="preserve">
<g>
	<g>
		<path d="M511.727,233.478L484.813,95.632c-0.52-2.662-1.763-5.13-3.592-7.133L404.749,4.807C401.952,1.745,397.995,0,393.847,0
			H118.154c-4.072,0-7.964,1.682-10.755,4.647L28.63,88.34c-1.965,2.087-3.281,4.703-3.785,7.526L0.23,233.713
			c-0.768,4.303,0.41,8.726,3.216,12.077c2.806,3.351,6.953,5.287,11.324,5.287h78.769v246.154c0,8.157,6.613,14.769,14.769,14.769
			h295.385c8.157,0,14.769-6.613,14.769-14.769V251.077h78.769c4.413,0,8.595-1.973,11.4-5.38
			C511.437,242.292,512.573,237.81,511.727,233.478z M211.693,29.539h88.615v9.846c0,24.431-19.876,44.308-44.308,44.308
			s-44.308-19.876-44.308-44.308V29.539z M388.924,482.462H123.077v-24.615h265.846V482.462z M418.462,221.539v-83.692
			c0-8.157-6.613-14.769-14.769-14.769s-14.769,6.613-14.769,14.769v290.462H123.077V137.846c0-8.157-6.613-14.769-14.769-14.769
			s-14.769,6.613-14.769,14.769v83.692H32.41l20.742-116.155l71.384-75.845h57.619v9.846c0,40.719,33.127,73.846,73.846,73.846
			s73.846-33.127,73.846-73.846v-9.846h57.489l69.281,75.824l22.683,116.176H418.462z"/>
	</g>
</g>
<g>
</g>
<g>
</g>
<g>
</g>
<g>
</g>
<g>
</g>
<g>
</g>
<g>
</g>
<g>
</g>
<g>
</g>
<g>
</g>
<g>
</g>
<g>
</g>
<g>
</g>
<g>
</g>
<g>
</g>
</svg>
