<?xml version="1.0" encoding="iso-8859-1"?>
<!-- Generator: Adobe Illustrator 19.0.0, SVG Export Plug-In . SVG Version: 6.00 Build 0)  -->
<svg version="1.1" id="Capa_1" xmlns="http://www.w3.org/2000/svg" xmlns:xlink="http://www.w3.org/1999/xlink" x="0px" y="0px"
	 viewBox="0 0 512 512" style="enable-background:new 0 0 512 512;" xml:space="preserve">
<g>
	<g>
		<path d="M511.927,250c-0.017-0.712-0.046-1.423-0.068-2.134c-0.039-1.268-0.081-2.535-0.139-3.801
			c-0.041-0.903-0.095-1.803-0.145-2.704c-0.059-1.045-0.12-2.087-0.191-3.13c-0.071-1.042-0.151-2.082-0.234-3.122
			c-0.069-0.851-0.142-1.699-0.219-2.548c-0.108-1.202-0.223-2.404-0.349-3.603c-0.061-0.583-0.128-1.166-0.193-1.748
			c-0.161-1.451-0.329-2.901-0.515-4.346c-0.008-0.062-0.017-0.123-0.025-0.185c-7.202-55.753-32.424-107.293-72.831-147.699
			C395.394,33.355,341.954,7.848,284.264,1.552c-0.386-0.042-0.771-0.087-1.157-0.128c-1.31-0.137-2.621-0.261-3.935-0.378
			c-0.74-0.067-1.481-0.13-2.221-0.19c-1.107-0.089-2.214-0.173-3.323-0.248c-0.979-0.067-1.958-0.124-2.938-0.179
			c-0.941-0.053-1.882-0.107-2.825-0.151c-1.23-0.056-2.462-0.096-3.693-0.135c-0.733-0.023-1.464-0.053-2.199-0.07
			C259.985,0.028,257.994,0,256,0s-3.985,0.028-5.974,0.073c-0.734,0.017-1.465,0.047-2.199,0.07
			c-1.232,0.038-2.464,0.079-3.693,0.135c-0.943,0.042-1.884,0.097-2.825,0.151c-0.98,0.055-1.959,0.113-2.938,0.179
			c-1.11,0.075-2.217,0.159-3.323,0.248c-0.741,0.06-1.482,0.124-2.221,0.19c-1.313,0.117-2.625,0.241-3.935,0.378
			c-0.386,0.04-0.771,0.085-1.157,0.128C170.046,7.848,116.606,33.355,74.98,74.98C34.574,115.388,9.352,166.927,2.149,222.68
			c-0.008,0.062-0.017,0.123-0.025,0.185c-0.185,1.445-0.354,2.895-0.515,4.346c-0.065,0.583-0.132,1.165-0.193,1.748
			c-0.125,1.199-0.24,2.401-0.349,3.603c-0.077,0.849-0.15,1.698-0.219,2.548c-0.084,1.04-0.163,2.08-0.234,3.122
			c-0.072,1.043-0.132,2.085-0.191,3.13c-0.05,0.901-0.103,1.801-0.145,2.704c-0.058,1.265-0.099,2.532-0.139,3.801
			c-0.022,0.711-0.052,1.421-0.068,2.134C0.028,251.998,0,253.997,0,256c0,0.447,0.007,0.893,0.015,1.338l0.01,0.667
			c0,0.002,0,0.005,0,0.007c0.518,67.627,27.079,131.13,74.956,179.007C123.333,485.371,187.62,512,256,512
			s132.667-26.629,181.02-74.98c47.877-47.877,74.439-111.381,74.956-179.007c0-0.002,0-0.005,0-0.007l0.01-0.667
			c0.008-0.445,0.015-0.891,0.015-1.338C512,253.997,511.972,251.998,511.927,250z M443.089,128.541
			c21.933,32.095,35.831,70.09,38.776,111.074l-52.944-11.016l-20.414-58.591L443.089,128.541z M238.366,30.221
			c0.204-0.016,0.407-0.03,0.61-0.045c1.719-0.128,3.443-0.239,5.172-0.329c0.097-0.005,0.194-0.012,0.291-0.017
			c1.731-0.088,3.467-0.151,5.208-0.199c0.375-0.01,0.751-0.019,1.127-0.028c1.737-0.038,3.479-0.065,5.225-0.065
			s3.488,0.027,5.226,0.066c0.376,0.009,0.751,0.017,1.127,0.028c1.741,0.048,3.477,0.111,5.208,0.199
			c0.097,0.005,0.194,0.012,0.291,0.017c1.729,0.09,3.453,0.2,5.172,0.329c0.204,0.015,0.407,0.03,0.61,0.045
			c14.141,1.094,27.916,3.506,41.217,7.089l-27.83,46.381h-62.045L197.148,37.31C210.45,33.727,224.224,31.316,238.366,30.221z
			 M68.913,128.541l34.582,41.468l-20.414,58.591l-52.944,11.016C33.08,198.63,46.978,160.635,68.913,128.541z M159.373,460.781
			c-36.148-17.126-67.064-43.546-89.651-76.157l51.133-17.323l47.306,40.147L159.373,460.781z M352.628,460.781l-8.788-53.334
			l47.306-40.147l51.133,17.323C419.692,417.236,388.776,443.655,352.628,460.781z M457.803,358.696l-65.1-22.055
			c-4.914-1.665-10.34-0.629-14.297,2.728l-60.058,50.969c-3.955,3.357-5.859,8.544-5.017,13.662l11.181,67.858
			c-21.622,6.88-44.64,10.604-68.513,10.604s-46.891-3.725-68.515-10.604L198.666,404c0.843-5.118-1.061-10.305-5.017-13.662
			l-60.058-50.969c-3.954-3.357-9.379-4.389-14.297-2.728l-65.1,22.055c-13.78-26.968-22.297-57.048-24.223-88.877l67.311-14.004
			c5.079-1.056,9.232-4.701,10.938-9.6l25.917-74.384c1.706-4.899,0.718-10.335-2.605-14.318l-43.966-52.721
			c22.253-24.763,49.869-44.611,81.006-57.691l35.375,58.96c2.671,4.447,7.478,7.17,12.666,7.17h78.769
			c5.188,0,9.995-2.722,12.664-7.17l35.375-58.96c31.137,13.08,58.753,32.928,81.006,57.691l-43.966,52.721
			c-3.323,3.984-4.312,9.419-2.605,14.318l25.917,74.384c1.706,4.899,5.859,8.544,10.938,9.6l67.311,14.004
			C480.099,301.649,471.583,331.729,457.803,358.696z"/>
	</g>
</g>
<g>
	<g>
		<path d="M358.866,248.615l-45.037-78.008c-2.639-4.57-7.514-7.385-12.79-7.385h-90.075c-5.277,0-10.152,2.815-12.79,7.385
			l-45.039,78.008c-2.639,4.57-2.639,10.2,0,14.769l45.037,78.008c2.639,4.57,7.514,7.385,12.79,7.385h90.075
			c5.277,0,10.152-2.815,12.79-7.385l45.039-78.008C361.504,258.815,361.504,253.185,358.866,248.615z M292.51,319.239h-73.021
			L182.979,256l36.511-63.239h73.021L329.021,256L292.51,319.239z"/>
	</g>
</g>
<g>
</g>
<g>
</g>
<g>
</g>
<g>
</g>
<g>
</g>
<g>
</g>
<g>
</g>
<g>
</g>
<g>
</g>
<g>
</g>
<g>
</g>
<g>
</g>
<g>
</g>
<g>
</g>
<g>
</g>
</svg>
