<?xml version="1.0" encoding="iso-8859-1"?>
<!-- Generator: Adobe Illustrator 19.0.0, SVG Export Plug-In . SVG Version: 6.00 Build 0)  -->
<svg version="1.1" id="Capa_1" xmlns="http://www.w3.org/2000/svg" xmlns:xlink="http://www.w3.org/1999/xlink" x="0px" y="0px"
	 viewBox="0 0 512 512" style="enable-background:new 0 0 512 512;" xml:space="preserve">
<g>
	<g>
		<path d="M438.154,194.462h-29.539v-59.077c0-67.865-55.212-123.077-123.077-123.077h-59.077
			c-67.865,0-123.077,55.212-123.077,123.077v59.077H73.846C33.127,194.462,0,227.589,0,268.308c0,37.381,27.919,68.365,64,73.192
			v54.808c0,24.431,19.876,44.308,44.308,44.308h14.769v14.769c0,24.431,19.876,44.308,44.308,44.308
			c24.431,0,44.308-19.876,44.308-44.308v-14.769h88.615v14.769c0,24.431,19.876,44.308,44.308,44.308
			c24.431,0,44.308-19.876,44.308-44.308v-14.769h14.769c24.431,0,44.308-19.876,44.308-44.308V341.5
			c36.081-4.828,64-35.811,64-73.192C512,227.589,478.873,194.462,438.154,194.462z M132.922,135.385L132.922,135.385
			c0.001-51.577,41.962-93.539,93.539-93.539h59.077c51.577,0,93.538,41.961,93.538,93.539v62.618
			c-20.459,6.569-36.97,21.783-45.316,41.358c-0.048,0.113-0.095,0.228-0.144,0.343c-0.357,0.851-0.699,1.708-1.026,2.575
			c-0.069,0.183-0.14,0.366-0.207,0.549c-0.341,0.927-0.666,1.859-0.97,2.802c-0.021,0.063-0.043,0.125-0.063,0.188
			c-0.324,1.015-0.626,2.04-0.908,3.074c-0.053,0.194-0.099,0.39-0.151,0.585c-0.214,0.81-0.414,1.627-0.602,2.449
			c-0.07,0.307-0.136,0.614-0.202,0.923c-0.162,0.759-0.312,1.523-0.451,2.291c-0.052,0.286-0.107,0.572-0.156,0.86
			c-0.176,1.043-0.337,2.091-0.47,3.149l-6.684,53.468H190.269l-6.684-53.468c-0.132-1.057-0.293-2.105-0.47-3.149
			c-0.048-0.288-0.103-0.573-0.156-0.86c-0.139-0.768-0.289-1.532-0.451-2.291c-0.066-0.308-0.132-0.615-0.202-0.923
			c-0.186-0.821-0.388-1.637-0.602-2.449c-0.051-0.195-0.097-0.391-0.151-0.585c-0.282-1.034-0.584-2.059-0.908-3.074
			c-0.021-0.063-0.043-0.125-0.063-0.188c-0.304-0.943-0.629-1.877-0.97-2.802c-0.068-0.184-0.138-0.366-0.207-0.549
			c-0.326-0.866-0.668-1.725-1.026-2.575c-0.048-0.114-0.094-0.229-0.144-0.343c-8.346-19.576-24.858-34.789-45.316-41.358V135.385z
			 M182.154,455.385c0,8.144-6.625,14.769-14.769,14.769c-8.144,0-14.769-6.625-14.769-14.769v-14.769h29.539V455.385z
			 M359.385,455.385c0,8.144-6.625,14.769-14.769,14.769c-8.144,0-14.769-6.625-14.769-14.769v-14.769h29.539V455.385z
			 M438.154,312.615h-4.923c-8.157,0-14.769,6.613-14.769,14.769v68.923c0,8.144-6.625,14.769-14.769,14.769H108.308
			c-8.144,0-14.769-6.625-14.769-14.769v-68.923c0-8.157-6.613-14.769-14.769-14.769h-4.923c-24.431,0-44.308-19.876-44.308-44.308
			c0-24.431,19.876-44.308,44.308-44.308h36.463c2.008,0,3.986,0.14,5.928,0.403c0.403,0.054,0.801,0.121,1.201,0.185
			c0.265,0.043,0.531,0.083,0.795,0.131c0.295,0.053,0.588,0.115,0.881,0.174c0.376,0.076,0.752,0.153,1.124,0.238
			c0.202,0.046,0.402,0.097,0.603,0.146c0.476,0.116,0.949,0.237,1.418,0.369c0.109,0.031,0.219,0.062,0.328,0.094
			c0.576,0.166,1.149,0.342,1.715,0.532c0.012,0.004,0.023,0.008,0.034,0.011c11.354,3.806,20.753,12.103,25.935,22.898
			c0.005,0.011,0.01,0.022,0.016,0.033c0.266,0.555,0.519,1.118,0.762,1.687c0.044,0.104,0.088,0.21,0.131,0.314
			c0.201,0.479,0.394,0.963,0.578,1.45c0.059,0.158,0.117,0.316,0.175,0.474c0.161,0.442,0.315,0.887,0.462,1.335
			c0.062,0.189,0.124,0.379,0.184,0.57c0.135,0.429,0.261,0.863,0.383,1.298c0.057,0.204,0.115,0.407,0.169,0.61
			c0.116,0.438,0.222,0.88,0.325,1.324c0.046,0.201,0.096,0.4,0.141,0.601c0.106,0.49,0.201,0.986,0.291,1.482
			c0.029,0.155,0.061,0.307,0.088,0.462c0.113,0.658,0.213,1.321,0.296,1.99l8.301,66.404c0.807,6.467,5.72,11.522,11.925,12.685
			c0.886,0.166,1.799,0.253,2.73,0.253h157.538c0.931,0,1.844-0.087,2.73-0.253c6.205-1.163,11.117-6.217,11.925-12.685
			l8.301-66.404c0.084-0.669,0.183-1.331,0.296-1.99c0.027-0.155,0.059-0.307,0.088-0.462c0.091-0.496,0.185-0.992,0.291-1.482
			c0.043-0.202,0.094-0.401,0.141-0.601c0.103-0.443,0.209-0.886,0.325-1.324c0.054-0.205,0.113-0.408,0.169-0.61
			c0.122-0.435,0.248-0.868,0.383-1.298c0.06-0.191,0.122-0.38,0.184-0.57c0.148-0.449,0.301-0.894,0.462-1.335
			c0.058-0.159,0.116-0.317,0.175-0.474c0.184-0.488,0.377-0.972,0.578-1.45c0.044-0.104,0.087-0.21,0.131-0.314
			c0.243-0.568,0.496-1.131,0.762-1.687c0.005-0.011,0.01-0.022,0.016-0.033c5.182-10.795,14.58-19.094,25.935-22.898
			c0.012-0.004,0.023-0.008,0.034-0.011c0.566-0.189,1.139-0.364,1.715-0.532c0.109-0.031,0.218-0.063,0.328-0.094
			c0.47-0.132,0.943-0.253,1.418-0.369c0.201-0.049,0.401-0.099,0.603-0.146c0.373-0.086,0.748-0.162,1.124-0.238
			c0.293-0.059,0.586-0.121,0.881-0.174c0.264-0.048,0.53-0.088,0.795-0.131c0.4-0.065,0.799-0.132,1.201-0.185
			c1.943-0.262,3.922-0.403,5.928-0.403h36.465c24.431,0,44.308,19.876,44.308,44.308S462.585,312.615,438.154,312.615z"/>
	</g>
</g>
<g>
	<g>
		<path d="M305.231,105.846c-13.573,0-24.615,11.042-24.615,24.615s11.042,24.615,24.615,24.615s24.615-11.042,24.615-24.615
			S318.804,105.846,305.231,105.846z M305.231,135.385c-2.715,0-4.923-2.208-4.923-4.923s2.208-4.923,4.923-4.923
			c2.715,0,4.923,2.208,4.923,4.923S307.945,135.385,305.231,135.385z"/>
	</g>
</g>
<g>
	<g>
		<path d="M256,194.462c-13.573,0-24.615,11.042-24.615,24.615s11.042,24.615,24.615,24.615s24.615-11.042,24.615-24.615
			S269.573,194.462,256,194.462z M256,224c-2.715,0-4.923-2.208-4.923-4.923s2.208-4.923,4.923-4.923s4.923,2.208,4.923,4.923
			S258.715,224,256,224z"/>
	</g>
</g>
<g>
	<g>
		<path d="M206.769,105.846c-13.573,0-24.615,11.042-24.615,24.615s11.042,24.615,24.615,24.615s24.615-11.042,24.615-24.615
			S220.342,105.846,206.769,105.846z M206.769,135.385c-2.715,0-4.923-2.208-4.923-4.923s2.208-4.923,4.923-4.923
			s4.923,2.208,4.923,4.923S209.484,135.385,206.769,135.385z"/>
	</g>
</g>
<g>
</g>
<g>
</g>
<g>
</g>
<g>
</g>
<g>
</g>
<g>
</g>
<g>
</g>
<g>
</g>
<g>
</g>
<g>
</g>
<g>
</g>
<g>
</g>
<g>
</g>
<g>
</g>
<g>
</g>
</svg>
