<?xml version="1.0" encoding="iso-8859-1"?>
<!-- Generator: Adobe Illustrator 19.0.0, SVG Export Plug-In . SVG Version: 6.00 Build 0)  -->
<svg version="1.1" id="Capa_1" xmlns="http://www.w3.org/2000/svg" xmlns:xlink="http://www.w3.org/1999/xlink" x="0px" y="0px"
	 viewBox="0 0 512 512" style="enable-background:new 0 0 512 512;" xml:space="preserve">
<g>
	<g>
		<path d="M374.154,64H137.846c-8.157,0-14.769,6.613-14.769,14.769s6.613,14.769,14.769,14.769h236.308
			c8.157,0,14.769-6.613,14.769-14.769S382.31,64,374.154,64z"/>
	</g>
</g>
<g>
	<g>
		<path d="M256.492,142.769H137.846c-8.157,0-14.769,6.613-14.769,14.769s6.613,14.769,14.769,14.769h118.646
			c8.157,0,14.769-6.613,14.769-14.769S264.649,142.769,256.492,142.769z"/>
	</g>
</g>
<g>
	<g>
		<path d="M433.231,0H108.308C83.876,0,64,19.876,64,44.308v423.385C64,492.124,83.876,512,108.308,512h324.923
			c8.157,0,14.769-6.613,14.769-14.769V14.769C448,6.613,441.387,0,433.231,0z M418.462,482.462H108.308
			c-8.144,0-14.769-6.625-14.769-14.769V448h324.923V482.462z M418.462,418.462H93.538V44.308c0-8.144,6.625-14.769,14.769-14.769
			h310.154V418.462z"/>
	</g>
</g>
<g>
</g>
<g>
</g>
<g>
</g>
<g>
</g>
<g>
</g>
<g>
</g>
<g>
</g>
<g>
</g>
<g>
</g>
<g>
</g>
<g>
</g>
<g>
</g>
<g>
</g>
<g>
</g>
<g>
</g>
</svg>
