<?xml version="1.0" encoding="iso-8859-1"?>
<!-- Generator: Adobe Illustrator 19.0.0, SVG Export Plug-In . SVG Version: 6.00 Build 0)  -->
<svg version="1.1" id="Capa_1" xmlns="http://www.w3.org/2000/svg" xmlns:xlink="http://www.w3.org/1999/xlink" x="0px" y="0px"
	 viewBox="0 0 512 512" style="enable-background:new 0 0 512 512;" xml:space="preserve">
<g>
	<g>
		<path d="M388.923,460.308h-34.462l22.131-16.598c15.636-11.727,21.969-31.431,16.133-50.196
			c-5.732-18.433-21.812-30.845-40.958-31.622c-0.739-0.031-1.483-0.045-2.23-0.045c-29.86,0-54.154,24.293-54.154,54.154
			c0,8.157,6.613,14.769,14.769,14.769s14.769-6.613,14.769-14.769c0-13.573,11.042-24.615,24.615-24.615
			c0.341,0,0.679,0.007,1.025,0.021c9.936,0.403,13.195,8.43,13.956,10.88c1.653,5.314,1.036,12.779-5.65,17.794l-57.576,43.181
			c-5.086,3.814-7.16,10.455-5.15,16.485s7.654,10.099,14.011,10.099h78.769c8.157,0,14.769-6.613,14.769-14.769
			S397.08,460.308,388.923,460.308z"/>
	</g>
</g>
<g>
	<g>
		<path d="M497.231,361.846c-8.157,0-14.769,6.613-14.769,14.769v34.462h-42.186l11.591-28.976
			c3.03-7.574-0.655-16.169-8.227-19.198c-7.573-3.032-16.168,0.655-19.198,8.226l-19.692,49.231
			c-1.821,4.551-1.264,9.707,1.483,13.765c2.748,4.059,7.328,6.49,12.23,6.49h64v34.462c0,8.156,6.613,14.769,14.769,14.769
			c8.157,0,14.769-6.613,14.769-14.769v-98.462C512,368.459,505.387,361.846,497.231,361.846z"/>
	</g>
</g>
<g>
	<g>
		<path d="M485.826,222.318c-2.502-5.004-7.616-8.164-13.211-8.164H450.31c-7.249-47.324-29.577-91.533-63.715-125.671
			c-42.774-42.773-99.643-66.329-160.133-66.329c-60.49,0-117.359,23.556-160.132,66.329C23.557,131.255,0,188.125,0,248.615
			c0,60.491,23.556,117.359,66.33,160.133s99.642,66.329,160.132,66.329h4.923c21.717,0,39.385-17.668,39.385-39.385
			s-17.668-39.385-39.385-39.385h-4.923c-40.188,0-77.794-15.926-105.889-44.843c-28.076-28.897-42.9-66.969-41.74-107.199
			c2.189-75.879,68.16-141.503,144.06-143.3c70.733-1.705,131.312,45.994,147.223,113.188h-15.653
			c-5.595,0-10.708,3.161-13.211,8.164c-2.503,5.004-1.961,10.991,1.395,15.466l59.077,78.769c2.789,3.719,7.167,5.908,11.815,5.908
			s9.026-2.189,11.815-5.908l59.077-78.769C487.787,233.31,488.328,227.322,485.826,222.318z M413.538,283.077L384,243.692h3.727
			c4.227,0,8.251-1.812,11.055-4.975c2.803-3.165,4.117-7.378,3.607-11.574c-5.263-43.354-26.396-83.15-59.505-112.056
			c-33.447-29.199-76.308-44.679-120.69-43.653c-44.391,1.052-86.962,19.657-119.869,52.389
			c-32.909,32.735-51.738,75.206-53.018,119.589c-1.392,48.28,16.393,93.963,50.08,128.635
			c33.705,34.693,78.835,53.798,127.075,53.798h4.923c5.429,0,9.846,4.417,9.846,9.846c0,5.429-4.417,9.846-9.846,9.846h-4.923
			c-52.599,0-102.051-20.484-139.245-57.677c-37.194-37.195-57.678-86.646-57.678-139.246c0-52.6,20.484-102.051,57.678-139.246
			c37.194-37.193,86.646-57.677,139.245-57.677c52.599,0,102.051,20.484,139.245,57.677c32.948,32.948,52.599,74.756,56.829,120.902
			c0.697,7.603,7.073,13.421,14.708,13.421h5.833L413.538,283.077z"/>
	</g>
</g>
<g>
</g>
<g>
</g>
<g>
</g>
<g>
</g>
<g>
</g>
<g>
</g>
<g>
</g>
<g>
</g>
<g>
</g>
<g>
</g>
<g>
</g>
<g>
</g>
<g>
</g>
<g>
</g>
<g>
</g>
</svg>
