<?xml version="1.0" encoding="iso-8859-1"?>
<!-- Generator: Adobe Illustrator 19.0.0, SVG Export Plug-In . SVG Version: 6.00 Build 0)  -->
<svg version="1.1" id="Capa_1" xmlns="http://www.w3.org/2000/svg" xmlns:xlink="http://www.w3.org/1999/xlink" x="0px" y="0px"
	 viewBox="0 0 511.999 511.999" style="enable-background:new 0 0 511.999 511.999;" xml:space="preserve">
<g>
	<g>
		<path d="M367.921,424.259l-87.071-87.071c-5.767-5.767-15.118-5.767-20.886,0l-22.336,22.336
			c-8.711,8.711-12.816,20.714-11.265,32.933c0.585,4.601,1.938,8.971,3.963,12.967c-28.453,4.727-61.601-6.967-86.732-32.097
			c-25.128-25.128-36.823-58.275-32.097-86.732c3.995,2.026,8.366,3.379,12.967,3.963c12.211,1.549,24.224-2.554,32.933-11.265
			l22.336-22.336c5.768-5.767,5.768-15.118,0-20.886l-87.072-87.072c-5.767-5.767-15.118-5.767-20.886,0l-22.47,22.47
			C16.101,204.676,0.693,251.443,5.923,303.154c5.116,50.592,29.501,100.02,68.663,139.182
			c39.162,39.162,88.591,63.547,139.182,68.663c6.612,0.669,13.137,1,19.57,1c43.874-0.002,83.155-15.424,112.114-44.384
			l22.47-22.47C373.689,439.378,373.689,430.027,367.921,424.259z M324.565,446.73c-56.191,56.191-158.963,44.852-229.095-25.279
			s-81.47-172.903-25.278-229.095l12.028-12.028l66.186,66.186l-11.893,11.893c-3.016,3.014-6.511,3.078-8.328,2.848
			c-1.817-0.23-5.186-1.166-7.353-4.84l-2.835-4.806c-2.721-4.613-7.684-7.418-13.08-7.26c-5.354,0.13-10.218,3.149-12.711,7.889
			c-22.624,43.011-10.079,101.392,30.502,141.973c40.58,40.582,98.962,53.129,141.973,30.502c4.74-2.493,7.76-7.357,7.889-12.711
			c0.131-5.354-2.648-10.359-7.26-13.08l-4.807-2.836c-3.673-2.166-4.609-5.535-4.839-7.352c-0.23-1.816-0.167-5.313,2.848-8.328
			l11.893-11.893l66.186,66.186L324.565,446.73z"/>
	</g>
</g>
<g>
	<g>
		<path d="M462.77,0H246.162c-24.43,0-44.306,19.876-44.306,44.306v123.072c0,24.43,19.876,44.306,44.306,44.306h54.152v63.998
			c0,5.677,3.255,10.851,8.371,13.312c2.035,0.978,4.221,1.457,6.396,1.457c3.292,0,6.557-1.1,9.227-3.236l94.413-75.53h44.048
			c24.43,0,44.306-19.876,44.306-44.306V44.306C507.076,19.876,487.201,0,462.77,0z M477.539,167.378
			c0,8.143-6.625,14.769-14.769,14.769h-49.229c-3.353,0-6.607,1.141-9.225,3.236l-74.464,59.571v-48.039
			c0-8.156-6.612-14.769-14.769-14.769h-68.921c-8.143,0-14.769-6.625-14.769-14.769V44.306c0-8.143,6.625-14.769,14.769-14.769
			H462.77c8.143,0,14.769,6.625,14.769,14.769V167.378z"/>
	</g>
</g>
<g>
	<g>
		<path d="M354.466,44.214c-21.716,0-39.383,17.667-39.383,39.383c0,8.156,6.612,14.769,14.769,14.769s14.769-6.612,14.769-14.769
			c0-5.429,4.417-9.846,9.846-9.846c5.429,0,9.846,4.417,9.846,9.846c0,5.429-4.417,9.846-9.846,9.846
			c-8.156,0-14.769,6.612-14.769,14.769v19.784c0,8.156,6.612,14.769,14.769,14.769s14.769-6.612,14.769-14.769v-7.888
			c14.42-5.853,24.614-20.014,24.614-36.51C393.849,61.882,376.182,44.214,354.466,44.214z"/>
	</g>
</g>
<g>
	<g>
		<path d="M369.167,165.92c-0.05-0.472-0.129-0.954-0.218-1.428c-0.099-0.472-0.217-0.945-0.354-1.408
			c-0.147-0.453-0.305-0.916-0.492-1.359c-0.186-0.443-0.393-0.876-0.62-1.3c-0.225-0.432-0.472-0.846-0.738-1.25
			c-0.266-0.394-0.561-0.788-0.857-1.162c-0.314-0.375-0.639-0.738-0.975-1.084c-3.092-3.082-7.531-4.696-11.904-4.253
			c-0.472,0.05-0.955,0.129-1.428,0.218c-0.472,0.098-0.945,0.217-1.408,0.353c-0.453,0.148-0.916,0.306-1.359,0.492
			c-0.443,0.187-0.876,0.394-1.3,0.621c-0.432,0.226-0.846,0.472-1.25,0.738c-0.394,0.266-0.788,0.551-1.162,0.856
			c-0.375,0.306-0.738,0.64-1.084,0.975c-0.335,0.346-0.67,0.709-0.975,1.084c-0.305,0.374-0.591,0.767-0.856,1.162
			c-0.267,0.404-0.513,0.817-0.738,1.25c-0.226,0.424-0.433,0.857-0.621,1.3c-0.186,0.443-0.345,0.906-0.492,1.359
			c-0.138,0.463-0.256,0.935-0.354,1.408c-0.089,0.473-0.167,0.956-0.218,1.428c-0.049,0.482-0.068,0.975-0.068,1.457
			c0,3.889,1.575,7.69,4.322,10.437c0.346,0.346,0.709,0.671,1.084,0.985c0.374,0.306,0.767,0.592,1.162,0.857
			c0.404,0.267,0.817,0.513,1.25,0.738c0.424,0.227,0.857,0.433,1.3,0.62c0.443,0.187,0.906,0.346,1.359,0.492
			c0.463,0.139,0.935,0.256,1.408,0.354c0.473,0.089,0.956,0.167,1.428,0.217c0.482,0.049,0.975,0.069,1.457,0.069
			c3.889,0,7.69-1.576,10.445-4.332c2.747-2.747,4.323-6.547,4.323-10.437C369.236,166.895,369.215,166.403,369.167,165.92z"/>
	</g>
</g>
<g>
</g>
<g>
</g>
<g>
</g>
<g>
</g>
<g>
</g>
<g>
</g>
<g>
</g>
<g>
</g>
<g>
</g>
<g>
</g>
<g>
</g>
<g>
</g>
<g>
</g>
<g>
</g>
<g>
</g>
</svg>
