<?xml version="1.0" encoding="iso-8859-1"?>
<!-- Generator: Adobe Illustrator 19.0.0, SVG Export Plug-In . SVG Version: 6.00 Build 0)  -->
<svg version="1.1" id="Capa_1" xmlns="http://www.w3.org/2000/svg" xmlns:xlink="http://www.w3.org/1999/xlink" x="0px" y="0px"
	 viewBox="0 0 512 512" style="enable-background:new 0 0 512 512;" xml:space="preserve">
<g>
	<g>
		<path d="M336.607,341.925c28.089-21.489,47.39-53.907,51.492-90.849h19.804c-1.288,13.391-4.326,26.485-9.095,39.083
			c-2.888,7.629,0.956,16.153,8.585,19.041c1.721,0.652,3.487,0.961,5.225,0.961c5.964,0,11.58-3.637,13.815-9.545
			c6.727-17.772,10.58-36.358,11.5-55.368c17.635-8.939,29.759-27.238,29.759-48.326c0-29.86-24.293-54.154-54.154-54.154h-4.938
			C407.98,63.94,343.671,0,264.698,0h-17.395C168.33,0,104.02,63.94,103.399,142.769h-4.938c-29.86,0-54.154,24.293-54.154,54.154
			c0,29.86,24.293,54.154,54.154,54.154h25.44c4.103,36.942,23.402,69.359,51.492,90.849
			c-74.317,12.618-131.087,77.452-131.087,155.305c0,8.157,6.613,14.769,14.769,14.769h393.846c8.157,0,14.769-6.613,14.769-14.769
			C467.692,419.377,410.922,354.543,336.607,341.925z M388.923,177.309c0.008-1.482,0.017-3.201,0.023-5.001h4.9h19.692
			c13.573,0,24.615,11.042,24.615,24.615s-11.042,24.615-24.615,24.615h-24.615V177.309z M123.077,221.538H98.462
			c-13.573,0-24.615-11.042-24.615-24.615s11.042-24.615,24.615-24.615h19.692h4.923V221.538z M132.929,142.769
			c0.621-62.541,51.689-113.231,114.374-113.231h17.395c62.684,0,113.752,50.691,114.373,113.231h-4.917h-98.462
			c-24.431,0-44.308-19.876-44.308-44.308c0-8.157-6.613-14.769-14.769-14.769c-8.156,0-14.769,6.613-14.769,14.769
			c0,24.431-19.876,44.308-44.308,44.308h-19.692H132.929z M152.615,236.308v-64h4.923c24.13,0,45.593-11.632,59.077-29.585
			c13.484,17.953,34.947,29.585,59.077,29.585h83.692v4.923v59.077c0,57.006-46.378,103.385-103.385,103.385
			S152.615,293.314,152.615,236.308z M280.615,369.231v5.908c0,13.573-11.042,24.615-24.615,24.615
			c-13.573,0-24.615-11.042-24.615-24.615v-5.908H280.615z M74.693,482.462c7.343-63.651,61.567-113.231,127.153-113.231v5.908
			c0,29.86,24.293,54.154,54.154,54.154s54.154-24.293,54.154-54.154v-5.908c65.586,0,119.81,49.579,127.153,113.231H74.693z"/>
	</g>
</g>
<g>
	<g>
		<path d="M374.154,428.308h-39.385c-8.157,0-14.769,6.613-14.769,14.769s6.613,14.769,14.769,14.769h39.385
			c8.157,0,14.769-6.613,14.769-14.769S382.31,428.308,374.154,428.308z"/>
	</g>
</g>
<g>
	<g>
		<path d="M285.538,251.077c-8.065,0-14.621,6.465-14.766,14.495c-0.846,1.588-6.123,5.197-14.772,5.197
			c-8.649,0-13.925-3.609-14.771-5.197c-0.147-8.03-6.702-14.495-14.767-14.495c-8.157,0-14.769,6.613-14.769,14.769
			c0,19.324,19.463,34.462,44.308,34.462s44.308-15.137,44.308-34.462C300.308,257.69,293.695,251.077,285.538,251.077z"/>
	</g>
</g>
<g>
	<g>
		<path d="M222.779,195.466c-0.049-0.472-0.118-0.955-0.217-1.428c-0.099-0.472-0.217-0.945-0.354-1.408
			c-0.138-0.453-0.305-0.916-0.492-1.359c-0.177-0.443-0.384-0.886-0.61-1.3c-0.226-0.432-0.473-0.846-0.738-1.25
			c-0.276-0.394-0.561-0.788-0.866-1.162c-0.305-0.375-0.63-0.738-0.975-1.084c-0.345-0.335-0.699-0.67-1.073-0.975
			c-0.374-0.305-0.768-0.591-1.172-0.856c-0.404-0.267-0.817-0.522-1.241-0.749c-0.423-0.217-0.867-0.423-1.31-0.61
			c-0.443-0.186-0.896-0.345-1.359-0.492c-0.463-0.138-0.935-0.256-1.398-0.353c-0.482-0.089-0.965-0.167-1.438-0.218
			c-0.965-0.098-1.94-0.098-2.905,0c-0.482,0.05-0.965,0.129-1.438,0.218c-0.473,0.098-0.945,0.217-1.398,0.353
			c-0.463,0.148-0.916,0.306-1.359,0.492c-0.443,0.187-0.886,0.394-1.31,0.61c-0.423,0.226-0.847,0.482-1.241,0.749
			c-0.404,0.266-0.798,0.551-1.172,0.856c-0.374,0.306-0.738,0.64-1.073,0.975c-0.345,0.346-0.67,0.709-0.975,1.084
			c-0.305,0.374-0.601,0.767-0.866,1.162c-0.266,0.404-0.512,0.817-0.738,1.25c-0.226,0.414-0.433,0.857-0.62,1.3
			c-0.177,0.443-0.345,0.906-0.482,1.359c-0.148,0.463-0.266,0.935-0.354,1.408c-0.099,0.473-0.167,0.956-0.217,1.428
			c-0.049,0.482-0.079,0.975-0.079,1.457c0,3.889,1.575,7.69,4.332,10.437c0.335,0.345,0.699,0.67,1.073,0.985
			c0.374,0.295,0.768,0.592,1.172,0.857c0.394,0.267,0.817,0.513,1.241,0.738c0.423,0.226,0.866,0.433,1.31,0.62
			c0.443,0.187,0.896,0.346,1.359,0.492c0.463,0.139,0.926,0.256,1.398,0.354c0.473,0.089,0.955,0.167,1.438,0.217
			c0.482,0.049,0.965,0.069,1.447,0.069s0.975-0.021,1.457-0.069c0.473-0.049,0.955-0.128,1.438-0.217
			c0.463-0.099,0.935-0.217,1.398-0.354c0.463-0.147,0.916-0.305,1.359-0.492c0.443-0.186,0.886-0.393,1.31-0.62
			c0.423-0.225,0.837-0.472,1.241-0.738c0.404-0.266,0.798-0.561,1.172-0.857c0.374-0.314,0.729-0.639,1.073-0.985
			c2.747-2.747,4.322-6.547,4.322-10.437C222.848,196.441,222.828,195.948,222.779,195.466z"/>
	</g>
</g>
<g>
	<g>
		<path d="M318.612,195.466c-0.049-0.472-0.118-0.955-0.217-1.428c-0.089-0.472-0.218-0.945-0.354-1.408
			c-0.138-0.453-0.305-0.916-0.482-1.359c-0.186-0.443-0.393-0.886-0.62-1.3c-0.225-0.432-0.472-0.846-0.738-1.25
			c-0.266-0.394-0.561-0.788-0.866-1.162c-0.305-0.375-0.63-0.738-0.975-1.084c-0.335-0.335-0.699-0.67-1.073-0.975
			c-0.374-0.305-0.768-0.591-1.171-0.856c-0.394-0.267-0.817-0.522-1.242-0.749c-0.423-0.217-0.867-0.423-1.31-0.61
			c-0.442-0.186-0.895-0.345-1.359-0.492c-0.463-0.138-0.925-0.256-1.398-0.353c-0.472-0.089-0.955-0.167-1.438-0.218
			c-0.964-0.098-1.94-0.098-2.905,0c-0.472,0.05-0.955,0.129-1.427,0.218c-0.473,0.098-0.945,0.217-1.409,0.353
			c-0.453,0.148-0.916,0.306-1.359,0.492c-0.443,0.187-0.885,0.394-1.31,0.61c-0.423,0.226-0.837,0.482-1.241,0.749
			c-0.404,0.266-0.798,0.551-1.162,0.856c-0.385,0.306-0.738,0.64-1.084,0.975c-0.345,0.346-0.67,0.709-0.975,1.084
			c-0.305,0.374-0.591,0.767-0.856,1.162c-0.267,0.404-0.522,0.817-0.749,1.25c-0.226,0.414-0.432,0.857-0.61,1.3
			c-0.186,0.443-0.354,0.906-0.492,1.359c-0.138,0.463-0.256,0.935-0.354,1.408c-0.099,0.473-0.167,0.956-0.217,1.428
			c-0.05,0.482-0.069,0.975-0.069,1.457c0,3.889,1.575,7.69,4.323,10.437c0.345,0.345,0.699,0.67,1.083,0.985
			c0.364,0.295,0.758,0.592,1.162,0.857c0.404,0.267,0.817,0.513,1.241,0.738c0.424,0.226,0.866,0.433,1.31,0.62
			c0.443,0.187,0.906,0.346,1.359,0.492c0.464,0.139,0.935,0.256,1.409,0.354c0.472,0.089,0.955,0.167,1.427,0.217
			c0.482,0.049,0.975,0.069,1.457,0.069s0.964-0.021,1.447-0.069c0.483-0.048,0.965-0.128,1.438-0.217
			c0.473-0.099,0.935-0.217,1.398-0.354c0.464-0.147,0.917-0.305,1.359-0.492c0.443-0.186,0.886-0.393,1.31-0.62
			c0.424-0.225,0.847-0.472,1.242-0.738c0.403-0.266,0.798-0.561,1.171-0.857c0.374-0.314,0.738-0.639,1.073-0.985
			c2.747-2.747,4.332-6.547,4.332-10.437C318.69,196.441,318.661,195.948,318.612,195.466z"/>
	</g>
</g>
<g>
</g>
<g>
</g>
<g>
</g>
<g>
</g>
<g>
</g>
<g>
</g>
<g>
</g>
<g>
</g>
<g>
</g>
<g>
</g>
<g>
</g>
<g>
</g>
<g>
</g>
<g>
</g>
<g>
</g>
</svg>
