<?xml version="1.0" encoding="iso-8859-1"?>
<!-- Generator: Adobe Illustrator 19.0.0, SVG Export Plug-In . SVG Version: 6.00 Build 0)  -->
<svg version="1.1" id="Capa_1" xmlns="http://www.w3.org/2000/svg" xmlns:xlink="http://www.w3.org/1999/xlink" x="0px" y="0px"
	 viewBox="0 0 512.001 512.001" style="enable-background:new 0 0 512.001 512.001;" xml:space="preserve">
<g>
	<g>
		<path d="M497.052,301.696l-19.097-39.063c-2.06-4.214-2.06-9.049,0-13.263l19.096-39.065
			c10.632-21.751,2.208-47.676-19.178-59.024l-38.409-20.378c-4.144-2.199-6.986-6.11-7.796-10.729l-7.512-42.828
			c-4.183-23.847-26.243-39.865-50.208-36.479l-43.053,6.09c-4.644,0.661-9.241-0.837-12.613-4.099l-31.251-30.231
			c-17.401-16.836-44.661-16.835-62.06-0.001l-31.252,30.232c-3.372,3.261-7.968,4.756-12.613,4.099l-43.053-6.09
			c-23.964-3.383-46.025,12.633-50.208,36.479l-7.512,42.828c-0.81,4.62-3.652,8.531-7.795,10.729l-38.41,20.38
			c-21.387,11.346-29.811,37.272-19.178,59.024l19.096,39.063c2.06,4.214,2.06,9.049,0,13.263l-19.096,39.065
			c-10.632,21.751-2.208,47.676,19.178,59.024l38.409,20.378c4.144,2.199,6.986,6.11,7.796,10.729l7.512,42.829
			c4.183,23.847,26.242,39.861,50.208,36.479l43.053-6.09c4.647-0.658,9.242,0.838,12.613,4.099l31.251,30.231
			c8.702,8.419,19.864,12.627,31.03,12.626c11.164-0.001,22.332-4.209,31.03-12.625l31.252-30.232
			c3.372-3.261,7.966-4.756,12.613-4.099l43.053,6.09c2.152,0.304,4.285,0.452,6.395,0.452c21.389-0.002,40.006-15.226,43.814-36.93
			l7.512-42.828c0.81-4.62,3.652-8.531,7.795-10.729l38.41-20.38C499.261,349.374,507.685,323.448,497.052,301.696z
			 M451.425,275.601l19.096,39.063c3.597,7.36,0.747,16.131-6.489,19.97l-38.411,20.379c-12.246,6.499-20.644,18.058-23.04,31.712
			l-7.512,42.828c-1.415,8.067-8.88,13.483-16.987,12.341l-43.053-6.09c-13.73-1.943-27.315,2.474-37.281,12.114l-31.252,30.233
			c-5.886,5.694-15.109,5.695-20.997-0.001l-31.251-30.232c-8.422-8.146-19.432-12.563-30.927-12.563
			c-2.106,0-4.229,0.149-6.354,0.449l-43.053,6.09c-8.113,1.143-15.571-4.273-16.987-12.341l-7.512-42.829
			c-2.396-13.655-10.793-25.214-23.041-31.713l-38.409-20.379c-7.236-3.839-10.086-12.611-6.489-19.969l19.096-39.065
			c6.088-12.455,6.088-26.743,0-39.198V236.4l-19.096-39.063c-3.597-7.36-0.747-16.131,6.489-19.97l38.411-20.379
			c12.246-6.499,20.644-18.058,23.04-31.712l7.513-42.828c1.415-8.067,8.873-13.491,16.987-12.341l43.053,6.09
			c13.725,1.942,27.315-2.475,37.281-12.114l31.252-30.233c5.886-5.694,15.109-5.695,20.997,0.001l31.251,30.232
			c9.965,9.64,23.554,14.05,37.281,12.114l43.053-6.09c8.111-1.145,15.571,4.273,16.987,12.341l7.512,42.828
			c2.396,13.655,10.793,25.214,23.041,31.713l38.41,20.378c7.236,3.839,10.086,12.611,6.489,19.969l-19.096,39.065
			C445.336,248.857,445.336,263.145,451.425,275.601z"/>
	</g>
</g>
<g>
	<g>
		<path d="M187.095,182.175c-8.154,0-14.765,6.611-14.765,14.765v55.575l-31.088-62.178c-3.062-6.125-9.936-9.341-16.599-7.767
			c-6.665,1.574-11.373,7.522-11.373,14.37v118.12c0,8.154,6.611,14.765,14.765,14.765c8.154,0,14.765-6.611,14.765-14.765v-55.575
			l31.088,62.178c2.542,5.084,7.708,8.164,13.203,8.164c1.125-0.001,2.263-0.13,3.396-0.397c6.665-1.574,11.373-7.522,11.373-14.37
			V196.94C201.86,188.786,195.25,182.175,187.095,182.175z"/>
	</g>
</g>
<g>
	<g>
		<path d="M285.528,300.295h-44.295v-29.53h34.452c8.154,0,14.765-6.611,14.765-14.765s-6.611-14.765-14.765-14.765h-34.452v-29.53
			h44.295c8.154,0,14.765-6.611,14.765-14.765s-6.611-14.765-14.765-14.765h-59.06c-8.154,0-14.765,6.611-14.765,14.765v118.12
			c0,8.154,6.611,14.765,14.765,14.765h59.06c8.154,0,14.765-6.611,14.765-14.765S293.683,300.295,285.528,300.295z"/>
	</g>
</g>
<g>
	<g>
		<path d="M383.962,182.175c-8.154,0-14.765,6.611-14.765,14.765v55.575l-1.558-3.117c-2.501-5.002-7.614-8.162-13.207-8.162
			s-10.705,3.16-13.207,8.162l-1.558,3.117V196.94c0-8.154-6.611-14.765-14.765-14.765c-8.154,0-14.765,6.611-14.765,14.765v118.12
			c0,6.848,4.708,12.796,11.373,14.37c6.667,1.575,13.536-1.641,16.599-7.767l16.323-32.647l16.323,32.647
			c2.543,5.084,7.708,8.164,13.203,8.164c1.125-0.001,2.263-0.13,3.396-0.397c6.665-1.574,11.373-7.522,11.373-14.37V196.94
			C398.727,188.786,392.117,182.175,383.962,182.175z"/>
	</g>
</g>
<g>
</g>
<g>
</g>
<g>
</g>
<g>
</g>
<g>
</g>
<g>
</g>
<g>
</g>
<g>
</g>
<g>
</g>
<g>
</g>
<g>
</g>
<g>
</g>
<g>
</g>
<g>
</g>
<g>
</g>
</svg>
