<?xml version="1.0" encoding="iso-8859-1"?>
<!-- Generator: Adobe Illustrator 19.0.0, SVG Export Plug-In . SVG Version: 6.00 Build 0)  -->
<svg version="1.1" id="Capa_1" xmlns="http://www.w3.org/2000/svg" xmlns:xlink="http://www.w3.org/1999/xlink" x="0px" y="0px"
	 viewBox="0 0 512 512" style="enable-background:new 0 0 512 512;" xml:space="preserve">
<g>
	<g>
		<path d="M477.957,262.632c-2.06-4.215-2.06-9.049,0-13.263l19.094-39.064c10.634-21.75,2.21-47.676-19.177-59.024l-38.41-20.38
			c-4.143-2.198-6.985-6.11-7.795-10.729l-7.512-42.828c-4.182-23.846-26.237-39.872-50.208-36.479l-43.053,6.09
			c-4.638,0.655-9.242-0.837-12.612-4.099l-31.252-30.232c-17.401-16.834-44.66-16.833-62.062,0l-31.253,30.233
			c-3.371,3.261-7.97,4.753-12.612,4.098l-43.053-6.09c-23.979-3.394-46.025,12.633-50.208,36.479l-7.513,42.827
			c-0.81,4.621-3.652,8.531-7.795,10.73l-38.41,20.38c-21.388,11.347-29.811,37.274-19.177,59.023l19.094,39.063
			c2.06,4.215,2.06,9.049,0,13.263l-19.094,39.063c-10.634,21.75-2.21,47.676,19.177,59.024l38.41,20.38
			c4.143,2.198,6.985,6.11,7.795,10.729l7.513,42.828c3.807,21.708,22.421,36.933,43.814,36.931c2.107,0,4.245-0.148,6.394-0.452
			l43.053-6.09c4.639-0.656,9.242,0.837,12.612,4.099l31.252,30.232c8.702,8.418,19.865,12.626,31.03,12.625
			c11.164-0.001,22.332-4.209,31.03-12.625l31.252-30.233c3.371-3.261,7.968-4.752,12.612-4.098l43.053,6.09
			c23.976,3.391,46.026-12.633,50.208-36.479l7.512-42.827c0.81-4.62,3.652-8.531,7.795-10.73l38.41-20.38
			c21.388-11.347,29.811-37.274,19.177-59.023L477.957,262.632z M464.034,334.633l-38.41,20.38
			c-12.246,6.499-20.645,18.057-23.04,31.713l-7.512,42.829c-1.415,8.067-8.874,13.487-16.987,12.342l-43.053-6.09
			c-13.726-1.941-27.316,2.474-37.281,12.113l-31.252,30.233c-5.886,5.694-15.11,5.695-20.996,0l-31.252-30.231
			c-8.421-8.147-19.431-12.563-30.927-12.563c-2.107,0-4.229,0.148-6.354,0.449l-43.053,6.09
			c-8.108,1.151-15.57-4.274-16.987-12.342l-7.512-42.829c-2.397-13.656-10.794-25.215-23.04-31.712l-38.41-20.38
			c-7.236-3.839-10.086-12.61-6.488-19.969l19.095-39.065c6.088-12.456,6.088-26.743,0-39.198l-19.096-39.065
			c-3.597-7.359-0.747-16.129,6.489-19.968l38.41-20.38c12.246-6.499,20.645-18.057,23.04-31.713l7.512-42.829
			c1.415-8.068,8.868-13.488,16.987-12.342l43.053,6.09c13.724,1.944,27.316-2.474,37.281-12.113l31.252-30.233
			c5.886-5.694,15.11-5.695,20.996,0l31.251,30.23c9.964,9.641,23.556,14.058,37.281,12.114l43.053-6.09
			c8.112-1.142,15.571,4.274,16.987,12.342l7.512,42.829c2.397,13.656,10.794,25.215,23.04,31.712l38.41,20.38
			c7.236,3.839,10.086,12.61,6.488,19.969l-19.095,39.064c-6.088,12.456-6.088,26.743,0,39.199l19.096,39.065
			C474.12,322.023,471.269,330.794,464.034,334.633z"/>
	</g>
</g>
<g>
	<g>
		<path d="M295.374,172.331c-15.498,0-29.496,6.545-39.374,17.017c-9.878-10.472-23.875-17.017-39.374-17.017
			c-29.852,0-54.139,24.287-54.139,54.139v16.476c0,31.896,17.722,60.571,46.251,74.835l40.658,20.329
			c2.078,1.039,4.34,1.558,6.603,1.558s4.525-0.52,6.603-1.558l40.658-20.329c28.529-14.264,46.251-42.94,46.251-74.835V226.47
			C349.512,196.618,325.226,172.331,295.374,172.331z M319.982,242.946c0,20.639-11.468,39.193-29.927,48.423L256,308.396
			l-34.055-17.027c-18.459-9.229-29.927-27.785-29.927-48.423V226.47c0-13.569,11.039-24.609,24.609-24.609
			c13.569,0,24.608,11.039,24.608,24.609c0,8.154,6.611,14.765,14.765,14.765c8.154,0,14.765-6.611,14.765-14.765
			c0-13.569,11.039-24.609,24.608-24.609c13.569,0,24.609,11.039,24.609,24.609V242.946z"/>
	</g>
</g>
<g>
	<g>
		<path d="M256,83.741c-94.984,0-172.259,77.276-172.259,172.259S161.016,428.259,256,428.259S428.259,350.984,428.259,256
			S350.984,83.741,256,83.741z M256,398.729c-78.701,0-142.729-64.028-142.729-142.729S177.299,113.271,256,113.271
			S398.729,177.299,398.729,256S334.701,398.729,256,398.729z"/>
	</g>
</g>
<g>
</g>
<g>
</g>
<g>
</g>
<g>
</g>
<g>
</g>
<g>
</g>
<g>
</g>
<g>
</g>
<g>
</g>
<g>
</g>
<g>
</g>
<g>
</g>
<g>
</g>
<g>
</g>
<g>
</g>
</svg>
