<?xml version="1.0" encoding="iso-8859-1"?>
<!-- Generator: Adobe Illustrator 19.0.0, SVG Export Plug-In . SVG Version: 6.00 Build 0)  -->
<svg version="1.1" id="Capa_1" xmlns="http://www.w3.org/2000/svg" xmlns:xlink="http://www.w3.org/1999/xlink" x="0px" y="0px"
	 viewBox="0 0 512 512" style="enable-background:new 0 0 512 512;" xml:space="preserve">
<g>
	<g>
		<path d="M467.692,231.385h-14.371c-4.789-17.88-13.293-34.585-25.013-49.072v-74.005c0-8.157-6.613-14.769-14.769-14.769
			c-28.479,0-54.042,16.412-66.272,41.259c-7.355-1.247-14.829-1.875-22.343-1.875h-14.769V128
			c0-51.577-41.961-93.538-93.539-93.538c-51.577,0-93.538,41.961-93.538,93.538v5.288C54.364,138.343,0,195.864,0,265.846v39.385
			c0,29.067,9.214,56.677,26.648,79.844c14.615,19.423,34.591,34.644,57.045,43.642v4.513c0,24.431,19.876,44.308,44.308,44.308
			c22.767,0,41.579-17.262,44.036-39.385h108.852c2.457,22.122,21.269,39.385,44.036,39.385c24.431,0,44.308-19.876,44.308-44.308
			v-2.646c41.275-14.562,72.801-48.669,84.094-90.893h14.367c24.431,0,44.308-19.876,44.308-44.308v-19.692
			C512,251.261,492.124,231.385,467.692,231.385z M152.615,128c0-35.29,28.71-64,64-64c35.29,0,64,28.71,64,64v4.923h-128V128z
			 M482.462,295.385c0,8.144-6.625,14.769-14.769,14.769h-26.258c-7.213,0-13.372,5.211-14.565,12.325
			c-6.744,40.182-36.61,72.713-76.089,82.876c-6.526,1.68-11.088,7.565-11.088,14.302v13.573c0,8.144-6.625,14.769-14.769,14.769
			c-8.144,0-14.769-6.625-14.769-14.769v-9.846c0-8.157-6.613-14.769-14.769-14.769H157.538c-8.157,0-14.769,6.613-14.769,14.769
			v9.846c0,8.144-6.625,14.769-14.769,14.769s-14.769-6.625-14.769-14.769v-14.957c0-6.5-4.249-12.236-10.467-14.129
			c-43.798-13.336-73.225-53.086-73.225-98.913v-39.385c0-57.006,46.378-103.385,103.385-103.385h192
			c9.389,0,18.69,1.256,27.644,3.736c3.795,1.05,7.845,0.542,11.262-1.407s5.914-5.182,6.939-8.981
			c3.863-14.317,14.563-25.427,28.002-30.194v62.095c0,3.599,1.313,7.073,3.694,9.771c12.786,14.492,21.226,32.168,24.406,51.116
			c1.193,7.115,7.352,12.325,14.565,12.325h26.258c8.144,0,14.769,6.625,14.769,14.769V295.385z"/>
	</g>
</g>
<g>
	<g>
		<path d="M237.714,270.769h-22.505c-4.266,0-7.736-3.47-7.736-7.736V251.78c0-4.265,3.47-7.736,7.736-7.736h22.505
			c4.266,0,7.736,3.471,7.736,7.736c0,8.157,6.613,14.769,14.769,14.769s14.769-6.613,14.769-14.769
			c0-19.367-14.848-35.326-33.759-37.104v-7.906c0-8.157-6.613-14.769-14.769-14.769s-14.769,6.613-14.769,14.769v7.906
			c-18.911,1.778-33.758,17.737-33.758,37.104v11.253c0,20.554,16.721,37.275,37.275,37.275h22.505c4.266,0,7.736,3.47,7.736,7.736
			v11.253c0,4.266-3.47,7.736-7.736,7.736h-22.505c-4.266,0-7.736-3.471-7.736-7.736c0-8.157-6.613-14.769-14.769-14.769
			s-14.769,6.613-14.769,14.769c0,19.367,14.848,35.326,33.758,37.104v7.906c0,8.157,6.613,14.769,14.769,14.769
			s14.769-6.613,14.769-14.769v-7.906c18.911-1.778,33.759-17.737,33.759-37.104v-11.253
			C274.988,287.49,258.268,270.769,237.714,270.769z"/>
	</g>
</g>
<g>
</g>
<g>
</g>
<g>
</g>
<g>
</g>
<g>
</g>
<g>
</g>
<g>
</g>
<g>
</g>
<g>
</g>
<g>
</g>
<g>
</g>
<g>
</g>
<g>
</g>
<g>
</g>
<g>
</g>
</svg>
