<?xml version="1.0" encoding="iso-8859-1"?>
<!-- Generator: Adobe Illustrator 19.0.0, SVG Export Plug-In . SVG Version: 6.00 Build 0)  -->
<svg version="1.1" id="Capa_1" xmlns="http://www.w3.org/2000/svg" xmlns:xlink="http://www.w3.org/1999/xlink" x="0px" y="0px"
	 viewBox="0 0 512 512" style="enable-background:new 0 0 512 512;" xml:space="preserve">
<g>
	<g>
		<g>
			<path d="M429.486,231.385c-0.391,0-0.778,0-1.16,0C428.709,231.385,429.096,231.385,429.486,231.385z"/>
			<path d="M433.083,231.385c-0.409,0-0.815,0-1.219,0C432.267,231.385,432.674,231.385,433.083,231.385z"/>
			<path d="M426.091,231.385c-0.365,0-0.725,0-1.079,0C425.366,231.385,425.726,231.385,426.091,231.385z"/>
			<path d="M421.992,231.385c-0.319,0-0.631,0-0.936,0C421.361,231.385,421.673,231.385,421.992,231.385z"/>
			<path d="M415.33,231.386c-0.166,0-0.322,0-0.466,0C415.009,231.386,415.164,231.386,415.33,231.386z"/>
			<path d="M419.325,231.385c-0.275,0-0.543,0-0.802,0C418.782,231.386,419.05,231.385,419.325,231.385z"/>
			<path d="M435.558,231.385c-0.417,0-0.832,0-1.246,0C434.726,231.385,435.141,231.385,435.558,231.385z"/>
			<path d="M439.341,231.385c-0.423,0-0.845,0-1.267,0C438.495,231.385,438.918,231.385,439.341,231.385z"/>
			<path d="M459.231,231.385c-0.319,0-0.644,0-0.975,0C458.587,231.385,458.913,231.385,459.231,231.385z"/>
			<path d="M462.696,231.385c-0.259,0-0.527,0-0.802,0C462.169,231.385,462.437,231.385,462.696,231.385z"/>
			<path d="M443.146,231.385c-0.422,0-0.844,0-1.267,0C442.301,231.385,442.724,231.385,443.146,231.385z"/>
			<path d="M467.692,201.846h-49.218l-119.62-90.026c7.075-9.153,11.299-20.614,11.299-33.051c0-29.86-24.293-54.154-54.154-54.154
				s-54.154,24.293-54.154,54.154c0,12.436,4.224,23.898,11.298,33.05l-119.62,90.027H44.308C19.876,201.846,0,221.723,0,246.154
				v196.923c0,24.431,19.876,44.308,44.308,44.308h423.385c24.431,0,44.308-19.876,44.308-44.308V246.154
				C512,221.723,492.124,201.846,467.692,201.846z M256,54.154c13.573,0,24.615,11.042,24.615,24.615S269.573,103.385,256,103.385
				s-24.615-11.042-24.615-24.615S242.427,54.154,256,54.154z M238.227,129.912c5.571,1.942,11.549,3.011,17.773,3.011
				c6.226,0,12.202-1.069,17.774-3.011l95.58,71.934H142.646L238.227,129.912z M482.462,443.077c0,8.144-6.625,14.769-14.769,14.769
				H44.308c-8.144,0-14.769-6.625-14.769-14.769V246.154c0-8.144,6.625-14.769,14.769-14.769h422.044c-0.144,0-0.298,0-0.463,0
				c0.166,0,0.322,0,0.466,0h1.337c8.144,0,14.769,6.625,14.769,14.769V443.077z"/>
			<path d="M456.207,231.385c-0.354,0-0.714,0-1.079,0C455.493,231.385,455.853,231.385,456.207,231.385z"/>
			<path d="M446.906,231.385c-0.413,0-0.829,0-1.246,0C446.078,231.385,446.493,231.385,446.906,231.385z"/>
			<path d="M449.356,231.385c-0.404,0-0.81,0-1.219,0C448.545,231.385,448.952,231.385,449.356,231.385z"/>
			<path d="M452.893,231.385c-0.383,0-0.77,0-1.16,0C452.123,231.385,452.51,231.385,452.893,231.385z"/>
		</g>
	</g>
</g>
<g>
	<g>
		<path d="M118.154,270.769H98.462C79.459,270.769,64,286.229,64,305.231V384c0,19.002,15.459,34.462,34.462,34.462h19.692
			c19.002,0,34.461-15.459,34.461-34.462v-78.769C152.615,286.229,137.156,270.769,118.154,270.769z M123.077,384
			c0,2.715-2.208,4.923-4.923,4.923H98.462c-2.715,0-4.923-2.208-4.923-4.923v-78.769c0-2.715,2.208-4.923,4.923-4.923h19.692
			c2.715,0,4.923,2.208,4.923,4.923V384z"/>
	</g>
</g>
<g>
	<g>
		<path d="M216.615,270.769h-19.692c-19.002,0-34.462,15.459-34.462,34.462v98.462c0,8.157,6.613,14.769,14.769,14.769
			S192,411.849,192,403.692v-44.308h24.615c19.002,0,34.462-15.459,34.462-34.462v-19.692
			C251.077,286.229,235.617,270.769,216.615,270.769z M221.538,324.923c0,2.715-2.208,4.923-4.923,4.923H192v-24.615
			c0-2.715,2.208-4.923,4.923-4.923h19.692c2.715,0,4.923,2.208,4.923,4.923V324.923z"/>
	</g>
</g>
<g>
	<g>
		<path d="M334.769,388.923h-44.308v-29.538h24.615c8.157,0,14.769-6.613,14.769-14.769c0-8.156-6.613-14.769-14.769-14.769h-24.615
			v-29.538h44.308c8.157,0,14.769-6.613,14.769-14.769s-6.613-14.769-14.769-14.769h-59.077c-8.157,0-14.769,6.613-14.769,14.769
			v118.154c0,8.157,6.613,14.769,14.769,14.769h59.077c8.157,0,14.769-6.613,14.769-14.769S342.926,388.923,334.769,388.923z"/>
	</g>
</g>
<g>
	<g>
		<path d="M433.231,270.769c-8.157,0-14.769,6.613-14.769,14.769v55.59l-31.098-62.195c-3.062-6.127-9.938-9.344-16.603-7.77
			c-6.667,1.574-11.376,7.524-11.376,14.374v118.154c0,8.157,6.613,14.769,14.769,14.769s14.769-6.613,14.769-14.769v-55.59
			l31.098,62.195c2.542,5.086,7.711,8.165,13.206,8.165c1.125,0,2.265-0.129,3.397-0.397c6.667-1.573,11.376-7.523,11.376-14.373
			V285.538C448,277.382,441.387,270.769,433.231,270.769z"/>
	</g>
</g>
<g>
</g>
<g>
</g>
<g>
</g>
<g>
</g>
<g>
</g>
<g>
</g>
<g>
</g>
<g>
</g>
<g>
</g>
<g>
</g>
<g>
</g>
<g>
</g>
<g>
</g>
<g>
</g>
<g>
</g>
</svg>
