<?xml version="1.0" encoding="iso-8859-1"?>
<!-- Generator: Adobe Illustrator 19.0.0, SVG Export Plug-In . SVG Version: 6.00 Build 0)  -->
<svg version="1.1" id="Capa_1" xmlns="http://www.w3.org/2000/svg" xmlns:xlink="http://www.w3.org/1999/xlink" x="0px" y="0px"
	 viewBox="0 0 512 512" style="enable-background:new 0 0 512 512;" xml:space="preserve">
<g>
	<g>
		<path d="M424.163,147.28L286.317,4.51C283.534,1.628,279.699,0,275.692,0h-39.385c-4.006,0-7.841,1.628-10.625,4.51L87.837,147.28
			c-2.658,2.753-4.144,6.432-4.144,10.259v310.154C83.692,492.124,103.569,512,128,512h256c24.431,0,44.308-19.876,44.308-44.308
			V157.538C428.308,153.711,426.822,150.033,424.163,147.28z M398.769,467.692c0,8.144-6.625,14.769-14.769,14.769H128
			c-8.144,0-14.769-6.625-14.769-14.769V163.505L242.578,29.538h26.846l129.346,133.967V467.692z"/>
	</g>
</g>
<g>
	<g>
		<path d="M268.659,329.847h-25.318c-5.817,0-10.549-4.733-10.549-10.549v-12.659c0-5.818,4.732-10.551,10.549-10.551h25.318
			c5.817,0,10.549,4.733,10.549,10.549c0,8.157,6.613,14.769,14.769,14.769s14.769-6.613,14.769-14.769
			c0-21.397-16.851-38.931-37.978-40.031V256c0-8.157-6.613-14.769-14.769-14.769c-8.157,0-14.769,6.613-14.769,14.769v10.605
			c-21.128,1.101-37.978,18.635-37.978,40.031v12.659c0,22.105,17.983,40.088,40.088,40.088h25.318
			c5.817,0,10.549,4.733,10.549,10.549v12.659c0,5.817-4.733,10.549-10.549,10.549h-25.318c-5.817,0-10.549-4.733-10.549-10.549
			c0-8.157-6.613-14.769-14.769-14.769s-14.769,6.613-14.769,14.769c0,21.397,16.851,38.931,37.978,40.031v10.607
			c0,8.157,6.613,14.769,14.769,14.769c8.157,0,14.769-6.613,14.769-14.769v-10.605c21.128-1.101,37.978-18.635,37.978-40.032
			v-12.659C308.747,347.83,290.764,329.847,268.659,329.847z"/>
	</g>
</g>
<g>
	<g>
		<path d="M311.845,117.941c-14.285-9.523-30.909-14.557-48.078-14.557h-18.598c-16.623,0-32.56,5.107-46.088,14.769
			c-10.599,7.572-16.927,19.869-16.927,32.895v0.528c0,22.29,18.134,40.423,40.424,40.423h66.845
			c22.29,0,40.423-18.134,40.423-40.424C329.846,138.028,323.117,125.455,311.845,117.941z M289.422,162.462h-66.845
			c-6.002,0-10.886-4.883-10.886-10.886v-0.528c0-3.508,1.703-6.818,4.559-8.858c8.488-6.062,18.489-9.267,28.919-9.267h18.598
			c11.317,0,22.276,3.318,31.693,9.596c3.036,2.023,4.847,5.409,4.847,9.056C300.308,157.578,295.425,162.462,289.422,162.462z"/>
	</g>
</g>
<g>
</g>
<g>
</g>
<g>
</g>
<g>
</g>
<g>
</g>
<g>
</g>
<g>
</g>
<g>
</g>
<g>
</g>
<g>
</g>
<g>
</g>
<g>
</g>
<g>
</g>
<g>
</g>
<g>
</g>
</svg>
