<?xml version="1.0" encoding="iso-8859-1"?>
<!-- Generator: Adobe Illustrator 19.0.0, SVG Export Plug-In . SVG Version: 6.00 Build 0)  -->
<svg version="1.1" id="Capa_1" xmlns="http://www.w3.org/2000/svg" xmlns:xlink="http://www.w3.org/1999/xlink" x="0px" y="0px"
	 viewBox="0 0 512 512" style="enable-background:new 0 0 512 512;" xml:space="preserve">
<g>
	<g>
		<path d="M467.692,103.385H44.308C19.876,103.385,0,123.261,0,147.692v216.615c0,24.431,19.876,44.308,44.308,44.308h423.385
			c24.431,0,44.308-19.876,44.308-44.308V147.692C512,123.261,492.124,103.385,467.692,103.385z M482.462,364.308
			c0,8.144-6.625,14.769-14.769,14.769H44.308c-8.144,0-14.769-6.625-14.769-14.769V147.692c0-8.144,6.625-14.769,14.769-14.769
			h423.385c8.144,0,14.769,6.625,14.769,14.769V364.308z"/>
	</g>
</g>
<g>
	<g>
		<path d="M78.769,162.462c-8.157,0-14.769,6.613-14.769,14.769v157.538c0,8.157,6.613,14.769,14.769,14.769
			s14.769-6.613,14.769-14.769V177.231C93.538,169.074,86.926,162.462,78.769,162.462z"/>
	</g>
</g>
<g>
	<g>
		<path d="M137.846,162.462c-8.157,0-14.769,6.613-14.769,14.769v88.615c0,8.157,6.613,14.769,14.769,14.769
			s14.769-6.613,14.769-14.769v-88.615C152.615,169.074,146.003,162.462,137.846,162.462z"/>
	</g>
</g>
<g>
	<g>
		<path d="M196.923,162.462c-8.157,0-14.769,6.613-14.769,14.769v88.615c0,8.157,6.613,14.769,14.769,14.769
			s14.769-6.613,14.769-14.769v-88.615C211.692,169.074,205.08,162.462,196.923,162.462z"/>
	</g>
</g>
<g>
	<g>
		<path d="M256,162.462c-8.157,0-14.769,6.613-14.769,14.769v157.538c0,8.157,6.613,14.769,14.769,14.769
			s14.769-6.613,14.769-14.769V177.231C270.769,169.074,264.157,162.462,256,162.462z"/>
	</g>
</g>
<g>
	<g>
		<path d="M315.077,162.462c-8.157,0-14.769,6.613-14.769,14.769v88.615c0,8.157,6.613,14.769,14.769,14.769
			s14.769-6.613,14.769-14.769v-88.615C329.846,169.074,323.233,162.462,315.077,162.462z"/>
	</g>
</g>
<g>
	<g>
		<path d="M374.154,162.462c-8.157,0-14.769,6.613-14.769,14.769v88.615c0,8.157,6.613,14.769,14.769,14.769
			s14.769-6.613,14.769-14.769v-88.615C388.923,169.074,382.31,162.462,374.154,162.462z"/>
	</g>
</g>
<g>
	<g>
		<path d="M433.231,162.462c-8.157,0-14.769,6.613-14.769,14.769v157.538c0,8.157,6.613,14.769,14.769,14.769
			S448,342.926,448,334.769V177.231C448,169.074,441.387,162.462,433.231,162.462z"/>
	</g>
</g>
<g>
	<g>
		<path d="M137.846,300.308c-8.157,0-14.769,6.613-14.769,14.769v19.692c0,8.157,6.613,14.769,14.769,14.769
			s14.769-6.613,14.769-14.769v-19.692C152.615,306.92,146.003,300.308,137.846,300.308z"/>
	</g>
</g>
<g>
	<g>
		<path d="M196.923,300.308c-8.157,0-14.769,6.613-14.769,14.769v19.692c0,8.157,6.613,14.769,14.769,14.769
			s14.769-6.613,14.769-14.769v-19.692C211.692,306.92,205.08,300.308,196.923,300.308z"/>
	</g>
</g>
<g>
	<g>
		<path d="M315.077,300.308c-8.157,0-14.769,6.613-14.769,14.769v19.692c0,8.157,6.613,14.769,14.769,14.769
			s14.769-6.613,14.769-14.769v-19.692C329.846,306.92,323.233,300.308,315.077,300.308z"/>
	</g>
</g>
<g>
	<g>
		<path d="M374.154,300.308c-8.157,0-14.769,6.613-14.769,14.769v19.692c0,8.157,6.613,14.769,14.769,14.769
			s14.769-6.613,14.769-14.769v-19.692C388.923,306.92,382.31,300.308,374.154,300.308z"/>
	</g>
</g>
<g>
</g>
<g>
</g>
<g>
</g>
<g>
</g>
<g>
</g>
<g>
</g>
<g>
</g>
<g>
</g>
<g>
</g>
<g>
</g>
<g>
</g>
<g>
</g>
<g>
</g>
<g>
</g>
<g>
</g>
</svg>
