<?xml version="1.0" encoding="iso-8859-1"?>
<!-- Generator: Adobe Illustrator 19.0.0, SVG Export Plug-In . SVG Version: 6.00 Build 0)  -->
<svg version="1.1" id="Capa_1" xmlns="http://www.w3.org/2000/svg" xmlns:xlink="http://www.w3.org/1999/xlink" x="0px" y="0px"
	 viewBox="0 0 512 512" style="enable-background:new 0 0 512 512;" xml:space="preserve">
<g>
	<g>
		<path d="M497.231,172.308h-68.923V98.462c0-24.431-19.876-44.308-44.308-44.308H44.308C19.876,54.154,0,74.03,0,98.462V256
			c0,24.431,19.876,44.308,44.308,44.308h39.385V384c0,5.533,3.093,10.601,8.012,13.132c2.13,1.097,4.447,1.637,6.756,1.637
			c3.023,0,6.033-0.927,8.586-2.751l94.8-67.715v36.004c0,8.157,6.613,14.769,14.769,14.769h132.665l94.417,75.533
			c2.67,2.137,5.934,3.237,9.228,3.236c2.174,0,4.362-0.479,6.396-1.457c5.116-2.46,8.371-7.634,8.371-13.312v-64h29.538
			c8.157,0,14.769-6.613,14.769-14.769V187.077C512,178.92,505.387,172.308,497.231,172.308z M113.231,355.3v-69.762
			c0-8.157-6.613-14.769-14.769-14.769H44.308c-8.144,0-14.769-6.625-14.769-14.769V98.462c0-8.144,6.625-14.769,14.769-14.769H384
			c8.144,0,14.769,6.625,14.769,14.769V256c0,8.144-6.625,14.769-14.769,14.769H236.308c-3.078,0-6.08,0.962-8.585,2.751
			L113.231,355.3z M482.462,349.538h-29.538c-8.157,0-14.769,6.613-14.769,14.769v48.04l-74.466-59.572
			c-2.618-2.095-5.872-3.236-9.226-3.236H231.385v-42.334l9.656-6.897H384c24.431,0,44.308-19.876,44.308-44.308v-54.154h54.154
			V349.538z"/>
	</g>
</g>
<g>
	<g>
		<path d="M226.462,103.385H68.923c-8.157,0-14.769,6.613-14.769,14.769s6.613,14.769,14.769,14.769h157.538
			c8.157,0,14.769-6.613,14.769-14.769S234.618,103.385,226.462,103.385z"/>
	</g>
</g>
<g>
	<g>
		<path d="M354.462,162.462H68.923c-8.157,0-14.769,6.613-14.769,14.769S60.767,192,68.923,192h285.538
			c8.157,0,14.769-6.613,14.769-14.769S362.618,162.462,354.462,162.462z"/>
	</g>
</g>
<g>
	<g>
		<path d="M354.462,221.538H68.923c-8.157,0-14.769,6.613-14.769,14.769s6.613,14.769,14.769,14.769h285.538
			c8.157,0,14.769-6.613,14.769-14.769S362.618,221.538,354.462,221.538z"/>
	</g>
</g>
<g>
</g>
<g>
</g>
<g>
</g>
<g>
</g>
<g>
</g>
<g>
</g>
<g>
</g>
<g>
</g>
<g>
</g>
<g>
</g>
<g>
</g>
<g>
</g>
<g>
</g>
<g>
</g>
<g>
</g>
</svg>
