<?xml version="1.0" encoding="iso-8859-1"?>
<!-- Generator: Adobe Illustrator 19.0.0, SVG Export Plug-In . SVG Version: 6.00 Build 0)  -->
<svg version="1.1" id="Capa_1" xmlns="http://www.w3.org/2000/svg" xmlns:xlink="http://www.w3.org/1999/xlink" x="0px" y="0px"
	 viewBox="0 0 512 512" style="enable-background:new 0 0 512 512;" xml:space="preserve">
<g>
	<g>
		<path d="M384,0H128c-24.431,0-44.308,19.876-44.308,44.308v93.538c0,24.431,19.876,44.308,44.308,44.308h92.344l25.213,25.212
			c2.883,2.885,6.663,4.326,10.443,4.326c3.78,0,7.56-1.441,10.444-4.326l25.212-25.212H384c24.431,0,44.308-19.876,44.308-44.308
			V44.308C428.308,19.876,408.431,0,384,0z M398.769,137.846c0,8.144-6.625,14.769-14.769,14.769h-98.462
			c-3.918,0-7.674,1.557-10.443,4.326L256,176.036l-19.096-19.095c-2.77-2.77-6.526-4.326-10.443-4.326H128
			c-8.144,0-14.769-6.625-14.769-14.769V44.308c0-8.144,6.625-14.769,14.769-14.769h256c8.144,0,14.769,6.625,14.769,14.769V137.846
			z"/>
	</g>
</g>
<g>
	<g>
		<path d="M265.846,46.769H147.692c-8.157,0-14.769,6.613-14.769,14.769s6.613,14.769,14.769,14.769h118.154
			c8.157,0,14.769-6.613,14.769-14.769S274.003,46.769,265.846,46.769z"/>
	</g>
</g>
<g>
	<g>
		<path d="M364.308,105.846H147.692c-8.157,0-14.769,6.613-14.769,14.769c0,8.157,6.613,14.769,14.769,14.769h216.615
			c8.157,0,14.769-6.613,14.769-14.769C379.077,112.459,372.464,105.846,364.308,105.846z"/>
	</g>
</g>
<g>
	<g>
		<path d="M256,231.385c-40.719,0-73.846,33.127-73.846,73.846c0,40.719,33.127,73.846,73.846,73.846s73.846-33.127,73.846-73.846
			C329.846,264.512,296.719,231.385,256,231.385z M256,349.538c-24.431,0-44.308-19.876-44.308-44.308s19.876-44.308,44.308-44.308
			s44.308,19.876,44.308,44.308S280.431,349.538,256,349.538z"/>
	</g>
</g>
<g>
	<g>
		<path d="M300.308,388.923h-88.615c-59.721,0-108.308,48.587-108.308,108.308c0,8.157,6.613,14.769,14.769,14.769h275.692
			c8.157,0,14.769-6.613,14.769-14.769C408.615,437.51,360.029,388.923,300.308,388.923z M134.311,482.462
			c6.934-36.397,38.995-64,77.381-64h88.615c38.386,0,70.447,27.603,77.381,64H134.311z"/>
	</g>
</g>
<g>
</g>
<g>
</g>
<g>
</g>
<g>
</g>
<g>
</g>
<g>
</g>
<g>
</g>
<g>
</g>
<g>
</g>
<g>
</g>
<g>
</g>
<g>
</g>
<g>
</g>
<g>
</g>
<g>
</g>
</svg>
