<?xml version="1.0" encoding="iso-8859-1"?>
<!-- Generator: Adobe Illustrator 19.0.0, SVG Export Plug-In . SVG Version: 6.00 Build 0)  -->
<svg version="1.1" id="Capa_1" xmlns="http://www.w3.org/2000/svg" xmlns:xlink="http://www.w3.org/1999/xlink" x="0px" y="0px"
	 viewBox="0 0 512 512" style="enable-background:new 0 0 512 512;" xml:space="preserve">
<g>
	<g>
		<path d="M384,0H128c-24.431,0-44.308,19.876-44.308,44.308v93.538c0,24.431,19.876,44.308,44.308,44.308h92.344l25.213,25.212
			c2.883,2.885,6.663,4.326,10.443,4.326c3.78,0,7.56-1.441,10.443-4.326l25.213-25.212H384c24.431,0,44.308-19.876,44.308-44.308
			V44.308C428.308,19.876,408.431,0,384,0z M398.769,137.846c0,8.144-6.625,14.769-14.769,14.769h-98.462
			c-3.917,0-7.673,1.557-10.443,4.326L256,176.036l-19.096-19.095c-2.77-2.77-6.526-4.326-10.443-4.326H128
			c-8.144,0-14.769-6.625-14.769-14.769V44.308c0-8.144,6.625-14.769,14.769-14.769h256c8.144,0,14.769,6.625,14.769,14.769V137.846
			z"/>
	</g>
</g>
<g>
	<g>
		<path d="M296.031,80.678c-1.737-5.346-6.359-9.243-11.922-10.052l-10.273-1.493l-4.593-9.308
			c-2.488-5.041-7.623-8.233-13.244-8.233c-5.621,0-10.756,3.192-13.244,8.233l-4.593,9.308l-10.273,1.493
			c-5.563,0.808-10.185,4.706-11.922,10.052c-1.738,5.346-0.289,11.216,3.737,15.139l7.433,7.245l-1.755,10.23
			c-0.95,5.54,1.327,11.141,5.875,14.445c4.549,3.304,10.578,3.74,15.554,1.124l9.187-4.83l9.187,4.83
			c2.16,1.136,4.52,1.696,6.872,1.696c3.062,0,6.109-0.951,8.682-2.821c4.548-3.304,6.826-8.904,5.875-14.445l-1.755-10.23
			l7.433-7.245C296.32,91.894,297.769,86.025,296.031,80.678z"/>
	</g>
</g>
<g>
	<g>
		<path d="M384.647,80.678c-1.737-5.346-6.359-9.243-11.922-10.052l-10.272-1.493l-4.593-9.308
			c-2.488-5.041-7.623-8.233-13.244-8.233s-10.756,3.192-13.244,8.233l-4.593,9.308l-10.272,1.493
			c-5.563,0.808-10.185,4.706-11.922,10.052c-1.738,5.346-0.289,11.216,3.737,15.139l7.433,7.245l-1.755,10.23
			c-0.95,5.54,1.327,11.141,5.875,14.445s10.579,3.74,15.554,1.124l9.187-4.83l9.187,4.83c2.16,1.136,4.52,1.696,6.872,1.696
			c3.062,0,6.11-0.951,8.682-2.821c4.548-3.304,6.826-8.904,5.875-14.445l-1.755-10.23l7.433-7.245
			C384.935,91.894,386.385,86.025,384.647,80.678z"/>
	</g>
</g>
<g>
	<g>
		<path d="M207.416,80.678c-1.737-5.346-6.359-9.243-11.922-10.052l-10.272-1.493l-4.593-9.308
			c-2.488-5.041-7.623-8.233-13.244-8.233c-5.621,0-10.756,3.192-13.244,8.233l-4.593,9.308l-10.272,1.493
			c-5.563,0.808-10.185,4.706-11.922,10.052c-1.738,5.346-0.288,11.216,3.737,15.139l7.433,7.245l-1.755,10.23
			c-0.95,5.54,1.327,11.141,5.875,14.445c4.549,3.304,10.579,3.74,15.554,1.124l9.187-4.83l9.187,4.83
			c2.16,1.136,4.52,1.696,6.872,1.696c3.062,0,6.11-0.951,8.682-2.821c4.548-3.304,6.826-8.904,5.875-14.445l-1.755-10.23
			l7.433-7.245C207.705,91.894,209.154,86.025,207.416,80.678z"/>
	</g>
</g>
<g>
	<g>
		<path d="M256,231.385c-40.719,0-73.846,33.127-73.846,73.846c0,40.719,33.127,73.846,73.846,73.846s73.846-33.127,73.846-73.846
			C329.846,264.512,296.719,231.385,256,231.385z M256,349.538c-24.431,0-44.308-19.876-44.308-44.308s19.876-44.308,44.308-44.308
			s44.308,19.876,44.308,44.308S280.431,349.538,256,349.538z"/>
	</g>
</g>
<g>
	<g>
		<path d="M300.308,388.923h-88.615c-59.721,0-108.308,48.587-108.308,108.308c0,8.157,6.613,14.769,14.769,14.769h275.692
			c8.157,0,14.769-6.613,14.769-14.769C408.615,437.51,360.029,388.923,300.308,388.923z M134.311,482.462
			c6.934-36.397,38.995-64,77.381-64h88.615c38.386,0,70.447,27.603,77.381,64H134.311z"/>
	</g>
</g>
<g>
</g>
<g>
</g>
<g>
</g>
<g>
</g>
<g>
</g>
<g>
</g>
<g>
</g>
<g>
</g>
<g>
</g>
<g>
</g>
<g>
</g>
<g>
</g>
<g>
</g>
<g>
</g>
<g>
</g>
</svg>
