<?xml version="1.0" encoding="iso-8859-1"?>
<!-- Generator: Adobe Illustrator 19.0.0, SVG Export Plug-In . SVG Version: 6.00 Build 0)  -->
<svg version="1.1" id="Capa_1" xmlns="http://www.w3.org/2000/svg" xmlns:xlink="http://www.w3.org/1999/xlink" x="0px" y="0px"
	 viewBox="0 0 512 512" style="enable-background:new 0 0 512 512;" xml:space="preserve">
<g>
	<g>
		<path d="M467.692,83.692h-105.37c4.401-8.048,6.908-17.275,6.908-27.077C369.231,25.397,343.834,0,312.615,0h-14.769
			C281.285,0,266.362,7.149,256,18.523C245.638,7.149,230.715,0,214.154,0h-14.769c-31.218,0-56.615,25.397-56.615,56.615
			c0,9.802,2.507,19.029,6.908,27.077H44.308C19.876,83.692,0,103.569,0,128v39.385c0,24.431,19.876,44.308,44.308,44.308v96v78.769
			v81.231c0,24.431,19.876,44.308,44.308,44.308h128h78.769h128c24.431,0,44.308-19.876,44.308-44.308v-81.231v-78.769v-96
			c24.431,0,44.308-19.876,44.308-44.308V128C512,103.569,492.124,83.692,467.692,83.692z M270.769,56.615
			c0-14.931,12.146-27.077,27.077-27.077h14.769c14.931,0,27.077,12.146,27.077,27.077c0,14.931-12.146,27.077-27.077,27.077
			h-41.846V56.615z M199.385,29.538h14.769c14.931,0,27.077,12.146,27.077,27.077v27.077h-41.846
			c-14.931,0-27.077-12.146-27.077-27.077C172.308,41.685,184.454,29.538,199.385,29.538z M201.846,482.462H88.615
			c-8.144,0-14.769-6.625-14.769-14.769v-66.462h128V482.462z M201.846,371.692h-128v-49.231h128V371.692z M201.846,292.923h-128
			v-81.231h128V292.923z M280.615,482.462h-49.231V211.692h49.231V482.462z M438.154,467.692c0,8.144-6.625,14.769-14.769,14.769
			H310.154v-81.231h128V467.692z M438.154,371.692h-128v-49.231h128V371.692z M438.154,292.923h-128v-81.231h128V292.923z
			 M482.462,167.385c0,8.144-6.625,14.769-14.769,14.769H44.308c-8.144,0-14.769-6.625-14.769-14.769V128
			c0-8.144,6.625-14.769,14.769-14.769h423.385c8.144,0,14.769,6.625,14.769,14.769V167.385z"/>
	</g>
</g>
<g>
</g>
<g>
</g>
<g>
</g>
<g>
</g>
<g>
</g>
<g>
</g>
<g>
</g>
<g>
</g>
<g>
</g>
<g>
</g>
<g>
</g>
<g>
</g>
<g>
</g>
<g>
</g>
<g>
</g>
</svg>
