<?xml version="1.0" encoding="iso-8859-1"?>
<!-- Generator: Adobe Illustrator 19.0.0, SVG Export Plug-In . SVG Version: 6.00 Build 0)  -->
<svg version="1.1" id="Capa_1" xmlns="http://www.w3.org/2000/svg" xmlns:xlink="http://www.w3.org/1999/xlink" x="0px" y="0px"
	 viewBox="0 0 512 512" style="enable-background:new 0 0 512 512;" xml:space="preserve">
<g>
	<g>
		<path d="M267.254,241.231h-22.505c-4.266,0-7.736-3.47-7.736-7.736v-11.253c0-4.266,3.47-7.736,7.736-7.736h22.505
			c4.266,0,7.736,3.471,7.736,7.736c0,8.157,6.613,14.769,14.769,14.769c8.156,0,14.769-6.613,14.769-14.769
			c0-19.367-14.849-35.326-33.759-37.104v-7.906c0-8.157-6.613-14.769-14.769-14.769s-14.769,6.613-14.769,14.769v7.906
			c-18.911,1.778-33.759,17.737-33.759,37.104v11.253c0,20.554,16.721,37.275,37.275,37.275h22.505c4.266,0,7.736,3.47,7.736,7.736
			v11.253c0,4.265-3.47,7.736-7.736,7.736h-22.505c-4.266,0-7.736-3.471-7.736-7.736c0-8.157-6.613-14.769-14.769-14.769
			c-8.156,0-14.769,6.613-14.769,14.769c0,19.367,14.849,35.326,33.759,37.104v7.906c0,8.157,6.613,14.769,14.769,14.769
			s14.769-6.613,14.769-14.769v-7.906c18.911-1.778,33.759-17.737,33.759-37.104v-11.253
			C304.529,257.952,287.808,241.231,267.254,241.231z"/>
	</g>
</g>
<g>
	<g>
		<path d="M497.231,83.692H14.769C6.613,83.692,0,90.305,0,98.462v315.077c0,8.157,6.613,14.769,14.769,14.769h482.462
			c8.157,0,14.769-6.613,14.769-14.769V98.462C512,90.305,505.387,83.692,497.231,83.692z M482.462,398.769H29.538V113.231h452.923
			V398.769z"/>
	</g>
</g>
<g>
	<g>
		<path d="M118.154,142.769H73.846c-8.157,0-14.769,6.613-14.769,14.769v39.385c0,8.157,6.613,14.769,14.769,14.769
			s14.769-6.613,14.769-14.769v-24.615h29.539c8.157,0,14.769-6.613,14.769-14.769S126.31,142.769,118.154,142.769z"/>
	</g>
</g>
<g>
	<g>
		<path d="M438.154,142.769h-44.308c-8.157,0-14.769,6.613-14.769,14.769s6.613,14.769,14.769,14.769h29.539v24.615
			c0,8.157,6.613,14.769,14.769,14.769s14.769-6.613,14.769-14.769v-39.385C452.923,149.382,446.31,142.769,438.154,142.769z"/>
	</g>
</g>
<g>
	<g>
		<path d="M118.154,339.692H88.615v-24.615c0-8.157-6.613-14.769-14.769-14.769s-14.769,6.613-14.769,14.769v39.385
			c0,8.157,6.613,14.769,14.769,14.769h44.308c8.157,0,14.769-6.613,14.769-14.769S126.31,339.692,118.154,339.692z"/>
	</g>
</g>
<g>
	<g>
		<path d="M438.154,300.308c-8.157,0-14.769,6.613-14.769,14.769v24.615h-29.539c-8.157,0-14.769,6.613-14.769,14.769
			s6.613,14.769,14.769,14.769h44.308c8.157,0,14.769-6.613,14.769-14.769v-39.385C452.923,306.92,446.31,300.308,438.154,300.308z"
			/>
	</g>
</g>
<g>
</g>
<g>
</g>
<g>
</g>
<g>
</g>
<g>
</g>
<g>
</g>
<g>
</g>
<g>
</g>
<g>
</g>
<g>
</g>
<g>
</g>
<g>
</g>
<g>
</g>
<g>
</g>
<g>
</g>
</svg>
