<?xml version="1.0" encoding="iso-8859-1"?>
<!-- Generator: Adobe Illustrator 19.0.0, SVG Export Plug-In . SVG Version: 6.00 Build 0)  -->
<svg version="1.1" id="Capa_1" xmlns="http://www.w3.org/2000/svg" xmlns:xlink="http://www.w3.org/1999/xlink" x="0px" y="0px"
	 viewBox="0 0 512 512" style="enable-background:new 0 0 512 512;" xml:space="preserve">
<g>
	<g>
		<path d="M448,172.308H329.846V98.462c0-35.29-28.71-64-64-64h-29.538c-19.002,0-34.462,15.459-34.462,34.462v103.385h-29.538
			v-24.615c0-8.157-6.613-14.769-14.769-14.769H14.769C6.613,132.923,0,139.536,0,147.692v315.077
			c0,8.157,6.613,14.769,14.769,14.769h142.769c8.157,0,14.769-6.613,14.769-14.769v-4.923H448c35.29,0,64-28.71,64-64V236.308
			C512,201.018,483.29,172.308,448,172.308z M142.769,448H29.538V162.462h113.231V448z M482.462,393.846
			c0,19.002-15.459,34.462-34.462,34.462H172.308V201.846h44.308c8.157,0,14.769-6.613,14.769-14.769V68.923
			c0-2.715,2.208-4.923,4.923-4.923h29.538c19.002,0,34.462,15.459,34.462,34.462v88.615c0,8.157,6.613,14.769,14.769,14.769H448
			c19.002,0,34.462,15.459,34.462,34.462V393.846z"/>
	</g>
</g>
<g>
</g>
<g>
</g>
<g>
</g>
<g>
</g>
<g>
</g>
<g>
</g>
<g>
</g>
<g>
</g>
<g>
</g>
<g>
</g>
<g>
</g>
<g>
</g>
<g>
</g>
<g>
</g>
<g>
</g>
</svg>
