<?xml version="1.0" encoding="iso-8859-1"?>
<!-- Generator: Adobe Illustrator 19.0.0, SVG Export Plug-In . SVG Version: 6.00 Build 0)  -->
<svg version="1.1" id="Capa_1" xmlns="http://www.w3.org/2000/svg" xmlns:xlink="http://www.w3.org/1999/xlink" x="0px" y="0px"
	 viewBox="0 0 512 512" style="enable-background:new 0 0 512 512;" xml:space="preserve">
<g>
	<g>
		<path d="M433.231,0H78.769C70.613,0,64,6.613,64,14.769v282.015c0,53.291,26.156,103.22,69.968,133.561l114.116,79.028
			c2.529,1.752,5.469,2.627,8.409,2.627c2.952,0,5.905-0.883,8.44-2.649l113.447-79.003C421.974,399.99,448,350.152,448,297.028
			V14.769C448,6.613,441.387,0,433.231,0z M418.462,297.028c0,43.464-21.294,84.242-56.963,109.08l-105.03,73.141L150.785,406.06
			c-35.846-24.823-57.247-65.675-57.247-109.277V29.538h324.923V297.028z"/>
	</g>
</g>
<g>
	<g>
		<path d="M374.154,59.077H137.846c-8.157,0-14.769,6.613-14.769,14.769v222.938c0,33.913,16.645,65.686,44.524,84.993
			l80.389,55.671c2.529,1.752,5.469,2.627,8.409,2.627c2.952,0,5.905-0.883,8.44-2.649l79.78-55.558
			c27.742-19.318,44.304-51.035,44.304-84.84V73.846C388.923,65.69,382.31,59.077,374.154,59.077z M359.385,297.028
			c0,24.147-11.83,46.801-31.647,60.599l-71.364,49.696l-71.957-49.831c-19.915-13.791-31.803-36.486-31.803-60.709V88.615h0.001
			h206.769V297.028z"/>
	</g>
</g>
<g>
	<g>
		<path d="M314.092,165.415c-6.525-4.894-15.783-3.57-20.677,2.954l-48.86,65.146l-27.344-27.344
			c-5.767-5.768-15.119-5.768-20.887,0s-5.768,15.119,0,20.887l39.386,39.385c2.78,2.78,6.54,4.326,10.442,4.326
			c0.349,0,0.698-0.013,1.048-0.037c4.27-0.304,8.2-2.446,10.769-5.87l59.077-78.769
			C321.941,179.567,320.617,170.31,314.092,165.415z"/>
	</g>
</g>
<g>
</g>
<g>
</g>
<g>
</g>
<g>
</g>
<g>
</g>
<g>
</g>
<g>
</g>
<g>
</g>
<g>
</g>
<g>
</g>
<g>
</g>
<g>
</g>
<g>
</g>
<g>
</g>
<g>
</g>
</svg>
