<?xml version="1.0" encoding="iso-8859-1"?>
<!-- Generator: Adobe Illustrator 19.0.0, SVG Export Plug-In . SVG Version: 6.00 Build 0)  -->
<svg version="1.1" id="Capa_1" xmlns="http://www.w3.org/2000/svg" xmlns:xlink="http://www.w3.org/1999/xlink" x="0px" y="0px"
	 viewBox="0 0 512 512" style="enable-background:new 0 0 512 512;" xml:space="preserve">
<g>
	<g>
		<path d="M329.846,206.769c0-24.431-19.876-44.308-44.308-44.308h-14.769v-24.615c0-8.157-6.613-14.769-14.769-14.769
			s-14.769,6.613-14.769,14.769v24.615h-44.308c-8.157,0-14.769,6.613-14.769,14.769v157.538c0,8.157,6.613,14.769,14.769,14.769
			h44.308v24.615c0,8.157,6.613,14.769,14.769,14.769s14.769-6.613,14.769-14.769v-24.615h14.769
			c24.431,0,44.308-19.876,44.308-44.308v-19.692c0-11.34-4.287-21.693-11.318-29.538c7.032-7.845,11.318-18.199,11.318-29.538
			V206.769z M300.308,305.231c0,8.144-6.625,14.769-14.769,14.769h-73.846v-49.231h73.846c8.144,0,14.769,6.625,14.769,14.769
			V305.231z M300.308,226.462c0,8.144-6.625,14.769-14.769,14.769h-73.846V192h73.846c8.144,0,14.769,6.625,14.769,14.769V226.462z"
			/>
	</g>
</g>
<g>
	<g>
		<path d="M437.02,74.98C388.667,26.629,324.38,0,256,0S123.333,26.629,74.98,74.98C26.628,123.332,0,187.62,0,256
			s26.629,132.667,74.98,181.02C123.332,485.372,187.62,512,256,512s132.667-26.629,181.02-74.98
			C485.372,388.668,512,324.38,512,256S485.371,123.333,437.02,74.98z M256,482.462C131.129,482.462,29.538,380.871,29.538,256
			S131.129,29.538,256,29.538S482.462,131.129,482.462,256S380.871,482.462,256,482.462z"/>
	</g>
</g>
<g>
	<g>
		<path d="M256,64C150.131,64,64,150.131,64,256s86.131,192,192,192s192-86.131,192-192S361.869,64,256,64z M256,418.462
			c-89.581,0-162.462-72.88-162.462-162.462S166.419,93.538,256,93.538S418.462,166.419,418.462,256S345.581,418.462,256,418.462z"
			/>
	</g>
</g>
<g>
</g>
<g>
</g>
<g>
</g>
<g>
</g>
<g>
</g>
<g>
</g>
<g>
</g>
<g>
</g>
<g>
</g>
<g>
</g>
<g>
</g>
<g>
</g>
<g>
</g>
<g>
</g>
<g>
</g>
</svg>
