<?xml version="1.0" encoding="iso-8859-1"?>
<!-- Generator: Adobe Illustrator 19.0.0, SVG Export Plug-In . SVG Version: 6.00 Build 0)  -->
<svg version="1.1" id="Capa_1" xmlns="http://www.w3.org/2000/svg" xmlns:xlink="http://www.w3.org/1999/xlink" x="0px" y="0px"
	 viewBox="0 0 512 512" style="enable-background:new 0 0 512 512;" xml:space="preserve">
<g>
	<g>
		<path d="M497.231,211.692c8.157,0,14.769-6.613,14.769-14.769v-78.769c0-8.157-6.613-14.769-14.769-14.769H14.769
			C6.613,103.385,0,109.997,0,118.154v78.769c0,8.157,6.613,14.769,14.769,14.769c24.431,0,44.308,19.876,44.308,44.308
			s-19.876,44.308-44.308,44.308C6.613,300.308,0,306.92,0,315.077v78.769c0,8.157,6.613,14.769,14.769,14.769h482.462
			c8.157,0,14.769-6.613,14.769-14.769v-78.769c0-8.157-6.613-14.769-14.769-14.769c-24.431,0-44.308-19.876-44.308-44.308
			S472.799,211.692,497.231,211.692z M482.462,328.362v50.715H172.308v-44.308c0-8.157-6.613-14.769-14.769-14.769
			s-14.769,6.613-14.769,14.769v44.308H29.538v-50.715c33.665-6.862,59.077-36.701,59.077-72.362s-25.412-65.501-59.077-72.362
			v-50.715h113.231v44.308c0,8.157,6.613,14.769,14.769,14.769s14.769-6.613,14.769-14.769v-44.308h310.154v50.715
			c-33.665,6.862-59.077,36.701-59.077,72.362S448.797,321.501,482.462,328.362z"/>
	</g>
</g>
<g>
	<g>
		<path d="M157.538,221.538c-8.157,0-14.769,6.613-14.769,14.769v39.385c0,8.157,6.613,14.769,14.769,14.769
			s14.769-6.613,14.769-14.769v-39.385C172.308,228.151,165.695,221.538,157.538,221.538z"/>
	</g>
</g>
<g>
</g>
<g>
</g>
<g>
</g>
<g>
</g>
<g>
</g>
<g>
</g>
<g>
</g>
<g>
</g>
<g>
</g>
<g>
</g>
<g>
</g>
<g>
</g>
<g>
</g>
<g>
</g>
<g>
</g>
</svg>
