<?xml version="1.0" encoding="iso-8859-1"?>
<!-- Generator: Adobe Illustrator 19.0.0, SVG Export Plug-In . SVG Version: 6.00 Build 0)  -->
<svg version="1.1" id="Capa_1" xmlns="http://www.w3.org/2000/svg" xmlns:xlink="http://www.w3.org/1999/xlink" x="0px" y="0px"
	 viewBox="0 0 512 512" style="enable-background:new 0 0 512 512;" xml:space="preserve">
<g>
	<g>
		<path d="M510.699,269.632l-17.582-39.073v-0.001l-26.724-59.388c-2.386-5.3-7.658-8.709-13.47-8.709h-83.692v-24.615
			c0-19.002-15.459-34.461-34.462-34.461H34.462C15.459,103.385,0,118.844,0,137.846v196.923c0,19.002,15.459,34.462,34.462,34.462
			h31.602c6.446,22.702,27.35,39.385,52.09,39.385c24.74,0,45.643-16.682,52.09-39.385h132.128
			c6.446,22.702,27.35,39.385,52.09,39.385s45.643-16.682,52.09-39.385h70.987c19.002,0,34.462-15.459,34.462-34.462v-59.077
			C512,273.603,511.557,271.537,510.699,269.632z M369.231,192h74.143l13.292,29.538h-87.435V192z M118.154,379.077
			c-13.573,0-24.615-11.042-24.615-24.615s11.042-24.615,24.615-24.615c13.573,0,24.615,11.042,24.615,24.615
			S131.727,379.077,118.154,379.077z M327.522,307.515c-0.262,0.151-0.527,0.297-0.787,0.453c-0.88,0.527-1.747,1.072-2.594,1.646
			c-0.123,0.084-0.241,0.174-0.364,0.259c-0.728,0.502-1.441,1.022-2.143,1.559c-0.265,0.202-0.524,0.41-0.785,0.617
			c-0.575,0.457-1.14,0.925-1.695,1.404c-0.244,0.211-0.491,0.418-0.732,0.634c-0.743,0.665-1.474,1.344-2.18,2.047
			c-0.037,0.037-0.075,0.075-0.112,0.112c-0.704,0.706-1.382,1.436-2.047,2.179c-0.216,0.241-0.423,0.487-0.634,0.732
			c-0.479,0.556-0.947,1.12-1.404,1.696c-0.207,0.26-0.414,0.52-0.615,0.784c-0.537,0.702-1.057,1.417-1.56,2.146
			c-0.084,0.122-0.174,0.239-0.257,0.361c-0.574,0.847-1.12,1.714-1.647,2.594c-0.155,0.259-0.3,0.523-0.451,0.784
			c-0.377,0.654-0.741,1.315-1.091,1.986c-0.155,0.296-0.308,0.593-0.458,0.893c-0.373,0.75-0.729,1.51-1.068,2.279
			c-0.084,0.19-0.174,0.375-0.256,0.566c-0.409,0.956-0.788,1.928-1.142,2.911c-0.091,0.251-0.171,0.508-0.258,0.761
			c-0.26,0.756-0.504,1.518-0.731,2.288c-0.048,0.163-0.109,0.322-0.156,0.486H170.261c-0.075-0.264-0.161-0.522-0.24-0.784
			c-0.089-0.294-0.176-0.59-0.27-0.882c-0.172-0.54-0.355-1.074-0.544-1.606c-0.086-0.24-0.165-0.483-0.254-0.722
			c-0.282-0.76-0.578-1.514-0.892-2.258c-0.045-0.107-0.096-0.212-0.143-0.319c-0.276-0.64-0.562-1.274-0.862-1.902
			c-0.118-0.248-0.243-0.491-0.365-0.737c-0.24-0.484-0.486-0.967-0.74-1.443c-0.143-0.266-0.287-0.531-0.434-0.794
			c-0.256-0.46-0.518-0.915-0.787-1.367c-0.149-0.25-0.295-0.5-0.448-0.747c-0.308-0.5-0.626-0.992-0.95-1.481
			c-0.121-0.183-0.238-0.37-0.361-0.551c-0.452-0.665-0.917-1.319-1.396-1.962c-0.092-0.123-0.189-0.241-0.282-0.364
			c-0.394-0.518-0.795-1.031-1.207-1.535c-0.172-0.211-0.35-0.417-0.524-0.624c-0.348-0.412-0.699-0.82-1.058-1.221
			c-0.195-0.218-0.392-0.434-0.591-0.649c-0.363-0.393-0.733-0.779-1.107-1.161c-0.193-0.198-0.385-0.396-0.582-0.591
			c-0.441-0.437-0.892-0.864-1.348-1.285c-0.134-0.124-0.264-0.252-0.399-0.374c-0.596-0.54-1.204-1.067-1.823-1.58
			c-0.141-0.117-0.287-0.227-0.429-0.343c-0.482-0.392-0.97-0.777-1.465-1.152c-0.22-0.166-0.444-0.328-0.667-0.491
			c-0.434-0.318-0.871-0.63-1.314-0.935c-0.239-0.165-0.48-0.328-0.723-0.489c-0.453-0.301-0.912-0.594-1.375-0.882
			c-0.228-0.143-0.456-0.287-0.686-0.426c-0.569-0.343-1.146-0.673-1.728-0.995c-0.126-0.07-0.248-0.144-0.374-0.213
			c-0.712-0.386-1.435-0.755-2.165-1.111c-0.193-0.094-0.39-0.18-0.584-0.272c-0.542-0.255-1.087-0.504-1.638-0.741
			c-0.263-0.113-0.528-0.221-0.793-0.33c-0.498-0.206-1-0.404-1.505-0.595c-0.278-0.104-0.555-0.208-0.835-0.308
			c-0.525-0.188-1.055-0.366-1.587-0.539c-0.254-0.083-0.507-0.168-0.763-0.247c-0.698-0.215-1.403-0.414-2.113-0.602
			c-0.09-0.024-0.176-0.051-0.266-0.074c-0.799-0.206-1.608-0.391-2.421-0.56c-0.241-0.05-0.485-0.092-0.728-0.139
			c-0.578-0.112-1.159-0.219-1.744-0.312c-0.299-0.048-0.6-0.091-0.901-0.133c-0.543-0.078-1.089-0.148-1.637-0.209
			c-0.308-0.034-0.615-0.068-0.926-0.097c-0.579-0.055-1.161-0.096-1.745-0.133c-0.272-0.017-0.542-0.038-0.814-0.051
			c-0.853-0.042-1.71-0.068-2.573-0.068c-0.863,0-1.72,0.026-2.573,0.065c-0.273,0.013-0.543,0.034-0.814,0.051
			c-0.584,0.036-1.166,0.079-1.745,0.133c-0.309,0.03-0.617,0.063-0.926,0.097c-0.548,0.061-1.094,0.131-1.637,0.209
			c-0.3,0.043-0.602,0.086-0.901,0.133c-0.585,0.094-1.165,0.2-1.744,0.312c-0.242,0.047-0.486,0.089-0.728,0.139
			c-0.813,0.169-1.622,0.354-2.421,0.56c-0.09,0.023-0.176,0.05-0.266,0.074c-0.71,0.187-1.415,0.387-2.113,0.602
			c-0.256,0.079-0.508,0.164-0.763,0.247c-0.533,0.172-1.062,0.35-1.587,0.539c-0.28,0.1-0.557,0.204-0.835,0.308
			c-0.506,0.191-1.007,0.39-1.505,0.595c-0.265,0.109-0.531,0.217-0.793,0.33c-0.551,0.237-1.096,0.486-1.638,0.741
			c-0.194,0.092-0.391,0.177-0.584,0.272c-0.731,0.354-1.453,0.724-2.165,1.111c-0.126,0.069-0.249,0.143-0.374,0.213
			c-0.582,0.322-1.159,0.653-1.728,0.994c-0.231,0.139-0.458,0.284-0.686,0.426c-0.463,0.287-0.922,0.581-1.375,0.882
			c-0.242,0.161-0.483,0.325-0.723,0.489c-0.443,0.305-0.881,0.617-1.314,0.935c-0.223,0.163-0.446,0.325-0.667,0.491
			c-0.496,0.375-0.984,0.76-1.465,1.152c-0.142,0.115-0.287,0.227-0.429,0.343c-0.619,0.513-1.228,1.041-1.824,1.58
			c-0.135,0.122-0.265,0.25-0.399,0.374c-0.456,0.421-0.907,0.849-1.348,1.285c-0.197,0.194-0.389,0.393-0.582,0.591
			c-0.374,0.382-0.744,0.768-1.107,1.161c-0.199,0.215-0.396,0.431-0.591,0.649c-0.359,0.402-0.711,0.809-1.058,1.221
			c-0.175,0.208-0.352,0.414-0.524,0.624c-0.412,0.503-0.812,1.016-1.207,1.535c-0.093,0.122-0.19,0.241-0.282,0.364
			c-0.48,0.643-0.945,1.298-1.396,1.962c-0.123,0.182-0.24,0.368-0.361,0.551c-0.324,0.488-0.642,0.981-0.95,1.481
			c-0.153,0.247-0.299,0.497-0.448,0.747c-0.269,0.452-0.532,0.907-0.787,1.367c-0.147,0.264-0.291,0.528-0.434,0.794
			c-0.254,0.477-0.5,0.959-0.74,1.443c-0.122,0.246-0.247,0.489-0.365,0.737c-0.299,0.627-0.586,1.261-0.862,1.902
			c-0.046,0.107-0.096,0.212-0.143,0.319c-0.314,0.744-0.61,1.498-0.892,2.258c-0.089,0.239-0.168,0.482-0.254,0.722
			c-0.189,0.533-0.372,1.066-0.544,1.606c-0.094,0.292-0.181,0.587-0.27,0.882c-0.079,0.262-0.165,0.521-0.24,0.784H34.462
			c-2.715,0.001-4.923-2.208-4.923-4.922V137.846c0-2.715,2.208-4.923,4.923-4.923h300.308c2.715,0,4.923,2.208,4.923,4.923v164.509
			c-0.169,0.048-0.332,0.11-0.5,0.159c-0.76,0.224-1.512,0.466-2.259,0.722c-0.261,0.09-0.524,0.172-0.783,0.266
			c-0.981,0.353-1.949,0.732-2.902,1.139c-0.197,0.084-0.388,0.178-0.584,0.264c-0.763,0.337-1.518,0.69-2.263,1.06
			c-0.301,0.15-0.6,0.305-0.898,0.461C328.835,306.776,328.175,307.139,327.522,307.515z M354.462,379.077
			c-13.573,0-24.615-11.042-24.615-24.615s11.042-24.615,24.615-24.615s24.615,11.042,24.615,24.615
			S368.034,379.077,354.462,379.077z M482.462,334.769c0,2.715-2.208,4.923-4.923,4.923h-70.97
			c-0.046-0.164-0.107-0.323-0.156-0.486c-0.226-0.771-0.471-1.533-0.731-2.288c-0.087-0.253-0.167-0.509-0.258-0.761
			c-0.354-0.984-0.734-1.954-1.142-2.911c-0.082-0.191-0.172-0.376-0.256-0.566c-0.34-0.769-0.695-1.529-1.068-2.279
			c-0.15-0.3-0.303-0.597-0.458-0.893c-0.35-0.67-0.714-1.332-1.091-1.986c-0.151-0.262-0.296-0.525-0.451-0.784
			c-0.527-0.88-1.073-1.748-1.647-2.594c-0.083-0.123-0.173-0.24-0.257-0.361c-0.502-0.729-1.023-1.443-1.56-2.145
			c-0.202-0.264-0.41-0.523-0.615-0.784c-0.457-0.575-0.925-1.14-1.404-1.696c-0.211-0.244-0.418-0.491-0.634-0.732
			c-0.665-0.743-1.343-1.473-2.047-2.179c-0.037-0.037-0.075-0.075-0.112-0.112c-0.706-0.704-1.436-1.383-2.18-2.047
			c-0.24-0.215-0.486-0.423-0.732-0.634c-0.555-0.479-1.12-0.947-1.695-1.404c-0.261-0.207-0.52-0.414-0.785-0.617
			c-0.701-0.537-1.416-1.056-2.143-1.559c-0.123-0.085-0.24-0.175-0.364-0.259c-0.847-0.574-1.713-1.12-2.593-1.646
			c-0.259-0.156-0.524-0.301-0.787-0.453c-0.653-0.376-1.313-0.74-1.982-1.089c-0.298-0.156-0.597-0.31-0.898-0.461
			c-0.744-0.371-1.5-0.724-2.263-1.06c-0.196-0.087-0.387-0.18-0.584-0.264c-0.953-0.408-1.921-0.786-2.902-1.139
			c-0.259-0.094-0.523-0.176-0.783-0.266c-0.746-0.256-1.499-0.497-2.259-0.722c-0.168-0.049-0.331-0.111-0.5-0.159v-51.276h100.727
			l12.503,27.786V334.769z"/>
	</g>
</g>
<g>
</g>
<g>
</g>
<g>
</g>
<g>
</g>
<g>
</g>
<g>
</g>
<g>
</g>
<g>
</g>
<g>
</g>
<g>
</g>
<g>
</g>
<g>
</g>
<g>
</g>
<g>
</g>
<g>
</g>
</svg>
