<?xml version="1.0" encoding="iso-8859-1"?>
<!-- Generator: Adobe Illustrator 19.0.0, SVG Export Plug-In . SVG Version: 6.00 Build 0)  -->
<svg version="1.1" id="Capa_1" xmlns="http://www.w3.org/2000/svg" xmlns:xlink="http://www.w3.org/1999/xlink" x="0px" y="0px"
	 viewBox="0 0 512.001 512.001" style="enable-background:new 0 0 512.001 512.001;" xml:space="preserve">
<g>
	<g>
		<path d="M413.539,0H98.462c-8.157,0-14.769,6.613-14.769,14.769v482.462c0,5.595,3.161,10.708,8.164,13.211
			c5.003,2.502,10.99,1.962,15.466-1.395l49.362-37.022l40.205,36.184c5.615,5.055,14.144,5.055,19.759,0L256,472.794l39.351,35.416
			c5.615,5.055,14.144,5.055,19.759,0l40.205-36.184l49.362,37.021c2.605,1.954,5.724,2.954,8.864,2.954
			c2.251,0,4.513-0.514,6.603-1.559c5.004-2.503,8.164-7.616,8.164-13.211V14.769C428.308,6.613,421.695,0,413.539,0z
			 M398.77,467.692l-35.446-26.585c-5.645-4.233-13.496-3.883-18.741,0.838l-39.351,35.415l-39.351-35.416
			c-2.807-2.527-6.344-3.791-9.88-3.791s-7.073,1.264-9.88,3.792L206.77,477.36l-39.351-35.416
			c-5.244-4.72-13.095-5.071-18.741-0.838l-35.446,26.585V29.538H398.77V467.692z"/>
	</g>
</g>
<g>
	<g>
		<path d="M275.693,211.692h-39.385c-13.573,0-24.615-11.042-24.615-24.615v-19.692c0-13.573,11.042-24.615,24.615-24.615h39.385
			c13.573,0,24.615,11.042,24.615,24.615c0,8.156,6.613,14.769,14.769,14.769s14.769-6.613,14.769-14.769
			c0-29.86-24.293-54.154-54.154-54.154h-4.923V88.615c0-8.156-6.613-14.769-14.769-14.769s-14.769,6.613-14.769,14.769v24.615
			h-4.923c-29.86,0-54.154,24.293-54.154,54.154v19.692c0,29.86,24.293,54.154,54.154,54.154h39.385
			c13.573,0,24.615,11.042,24.615,24.615v19.692c0,13.573-11.042,24.615-24.615,24.615h-39.385
			c-13.573,0-24.615-11.042-24.615-24.615c0-8.157-6.613-14.769-14.769-14.769s-14.769,6.613-14.769,14.769
			c0,29.86,24.293,54.154,54.154,54.154h4.923v24.615c0,8.157,6.613,14.769,14.769,14.769s14.769-6.613,14.769-14.769v-24.615h4.923
			c29.86,0,54.154-24.293,54.154-54.154v-19.692C329.847,235.986,305.553,211.692,275.693,211.692z"/>
	</g>
</g>
<g>
</g>
<g>
</g>
<g>
</g>
<g>
</g>
<g>
</g>
<g>
</g>
<g>
</g>
<g>
</g>
<g>
</g>
<g>
</g>
<g>
</g>
<g>
</g>
<g>
</g>
<g>
</g>
<g>
</g>
</svg>
