<?xml version="1.0" encoding="iso-8859-1"?>
<!-- Generator: Adobe Illustrator 19.0.0, SVG Export Plug-In . SVG Version: 6.00 Build 0)  -->
<svg version="1.1" id="Capa_1" xmlns="http://www.w3.org/2000/svg" xmlns:xlink="http://www.w3.org/1999/xlink" x="0px" y="0px"
	 viewBox="0 0 512 512" style="enable-background:new 0 0 512 512;" xml:space="preserve">
<g>
	<g>
		<path d="M477.538,73.846H34.462C15.459,73.846,0,89.306,0,108.308v295.385c0,19.002,15.459,34.462,34.462,34.462h443.077
			c19.002,0,34.462-15.459,34.462-34.462V108.308C512,89.306,496.541,73.846,477.538,73.846z M482.462,403.692
			c0,2.715-2.208,4.923-4.923,4.923H34.462c-2.715,0-4.923-2.208-4.923-4.923V251.077h452.923V403.692z M482.462,221.538H29.538
			v-49.231h452.923V221.538z M482.462,142.769H29.538v-34.462c0-2.715,2.208-4.923,4.923-4.923h443.077
			c2.715,0,4.923,2.208,4.923,4.923V142.769z"/>
	</g>
</g>
<g>
	<g>
		<path d="M433.231,339.692h-78.769c-8.157,0-14.769,6.613-14.769,14.769s6.613,14.769,14.769,14.769h78.769
			c8.157,0,14.769-6.613,14.769-14.769S441.387,339.692,433.231,339.692z"/>
	</g>
</g>
<g>
</g>
<g>
</g>
<g>
</g>
<g>
</g>
<g>
</g>
<g>
</g>
<g>
</g>
<g>
</g>
<g>
</g>
<g>
</g>
<g>
</g>
<g>
</g>
<g>
</g>
<g>
</g>
<g>
</g>
</svg>
