<?xml version="1.0" encoding="iso-8859-1"?>
<!-- Generator: Adobe Illustrator 19.0.0, SVG Export Plug-In . SVG Version: 6.00 Build 0)  -->
<svg version="1.1" id="Capa_1" xmlns="http://www.w3.org/2000/svg" xmlns:xlink="http://www.w3.org/1999/xlink" x="0px" y="0px"
	 viewBox="0 0 512 512" style="enable-background:new 0 0 512 512;" xml:space="preserve">
<g>
	<g>
		<path d="M467.692,0H44.308C19.876,0,0,19.876,0,44.308v423.385C0,492.124,19.876,512,44.308,512h423.385
			C492.124,512,512,492.124,512,467.692V44.308C512,19.876,492.124,0,467.692,0z M172.308,29.538h167.385v235.02l-73.946-59.453
			c-5.385-4.329-13.049-4.347-18.453-0.045l-74.986,59.691V29.538z M482.462,467.692c0,8.144-6.625,14.769-14.769,14.769H44.308
			c-8.144,0-14.769-6.625-14.769-14.769V44.308c0-8.144,6.625-14.769,14.769-14.769h98.462v265.846
			c0,5.67,3.247,10.841,8.355,13.304c2.039,0.984,4.231,1.466,6.412,1.465c3.281,0,6.536-1.092,9.2-3.214l89.709-71.41l88.76,71.365
			c4.431,3.562,10.512,4.266,15.637,1.809c5.127-2.456,8.388-7.635,8.388-13.319V29.538h98.462c8.144,0,14.769,6.625,14.769,14.769
			V467.692z"/>
	</g>
</g>
<g>
	<g>
		<path d="M211.692,403.692H93.538c-8.157,0-14.769,6.613-14.769,14.769s6.613,14.769,14.769,14.769h118.154
			c8.157,0,14.769-6.613,14.769-14.769S219.849,403.692,211.692,403.692z"/>
	</g>
</g>
<g>
</g>
<g>
</g>
<g>
</g>
<g>
</g>
<g>
</g>
<g>
</g>
<g>
</g>
<g>
</g>
<g>
</g>
<g>
</g>
<g>
</g>
<g>
</g>
<g>
</g>
<g>
</g>
<g>
</g>
</svg>
