<?xml version="1.0" encoding="iso-8859-1"?>
<!-- Generator: Adobe Illustrator 19.0.0, SVG Export Plug-In . SVG Version: 6.00 Build 0)  -->
<svg version="1.1" id="Capa_1" xmlns="http://www.w3.org/2000/svg" xmlns:xlink="http://www.w3.org/1999/xlink" x="0px" y="0px"
	 viewBox="0 0 512 512" style="enable-background:new 0 0 512 512;" xml:space="preserve">
<g>
	<g>
		<path d="M506.442,172.948L457.211,10.486C455.325,4.258,449.584,0,443.077,0H68.923c-6.507,0-12.248,4.258-14.134,10.486
			L5.558,172.948c-0.421,1.389-0.635,2.832-0.635,4.283c0,28.277,15.984,52.881,39.385,65.284v254.716
			c0,8.157,6.613,14.769,14.769,14.769h393.846c8.157,0,14.769-6.613,14.769-14.769V242.515
			c23.4-12.403,39.385-37.007,39.385-65.284C507.077,175.779,506.863,174.337,506.442,172.948z M221.538,482.462h-88.615V369.231
			h88.615V482.462z M438.154,482.462H251.077v-128c0-8.157-6.613-14.769-14.769-14.769H118.154c-8.157,0-14.769,6.613-14.769,14.769
			v128H73.846V250.913c0.243,0.016,0.487,0.023,0.731,0.036c0.277,0.016,0.553,0.029,0.831,0.041
			c1.119,0.051,2.238,0.086,3.361,0.086c9.803,0,19.166-1.92,27.732-5.404c12.52-5.091,23.339-13.523,31.345-24.181
			c8.006,10.659,18.825,19.09,31.345,24.181c8.566,3.484,17.929,5.404,27.732,5.404c9.803,0,19.166-1.92,27.732-5.404
			c12.52-5.091,23.339-13.523,31.345-24.181c8.006,10.659,18.825,19.09,31.345,24.181c8.566,3.484,17.929,5.404,27.732,5.404
			c9.803,0,19.166-1.92,27.732-5.404c12.52-5.091,23.339-13.523,31.345-24.181c8.006,10.659,18.825,19.09,31.345,24.181
			c8.566,3.484,17.929,5.404,27.732,5.404c1.123,0,2.243-0.034,3.361-0.086c0.278-0.013,0.554-0.026,0.831-0.041
			c0.243-0.014,0.487-0.02,0.731-0.036V482.462z M446.136,219.619c-0.232,0.071-0.468,0.132-0.701,0.199
			c-0.407,0.117-0.813,0.233-1.225,0.339c-0.281,0.072-0.563,0.135-0.845,0.201c-0.374,0.088-0.749,0.175-1.127,0.253
			c-0.289,0.06-0.579,0.114-0.869,0.168c-0.38,0.071-0.761,0.138-1.144,0.199c-0.287,0.045-0.574,0.089-0.862,0.129
			c-0.4,0.056-0.802,0.104-1.206,0.15c-0.273,0.031-0.544,0.062-0.818,0.087c-0.449,0.041-0.901,0.073-1.353,0.1
			c-0.23,0.014-0.461,0.034-0.691,0.044c-0.684,0.031-1.372,0.05-2.064,0.05c-24.431,0-44.308-19.876-44.308-44.308
			c0-8.157-6.613-14.769-14.769-14.769s-14.769,6.613-14.769,14.769c0,24.431-19.876,44.308-44.308,44.308
			c-24.431,0-44.308-19.876-44.308-44.308c0-8.157-6.613-14.769-14.769-14.769c-8.157,0-14.769,6.613-14.769,14.769
			c0,24.431-19.876,44.308-44.308,44.308s-44.308-19.876-44.308-44.308c0-8.157-6.613-14.769-14.769-14.769
			s-14.769,6.613-14.769,14.769c0,24.431-19.876,44.308-44.308,44.308c-0.692,0-1.379-0.02-2.065-0.051
			c-0.231-0.011-0.461-0.03-0.691-0.044c-0.453-0.028-0.904-0.059-1.353-0.1c-0.274-0.026-0.545-0.056-0.818-0.087
			c-0.404-0.045-0.805-0.094-1.206-0.15c-0.287-0.04-0.575-0.083-0.862-0.129c-0.383-0.061-0.764-0.128-1.144-0.199
			c-0.29-0.054-0.58-0.108-0.869-0.168c-0.378-0.079-0.752-0.165-1.127-0.253c-0.282-0.066-0.564-0.129-0.845-0.201
			c-0.412-0.105-0.818-0.222-1.225-0.339c-0.233-0.067-0.469-0.128-0.701-0.199c-17.535-5.349-30.49-21.302-31.356-40.352
			L79.88,29.538h352.24l45.372,149.729C476.626,198.318,463.67,214.271,446.136,219.619z"/>
	</g>
</g>
<g>
	<g>
		<path d="M393.846,280.615h-98.461c-8.157,0-14.769,6.613-14.769,14.769v78.769c0,8.157,6.613,14.769,14.769,14.769h98.461
			c8.157,0,14.769-6.613,14.769-14.769v-78.769C408.615,287.228,402.003,280.615,393.846,280.615z M379.077,359.385h-68.923v-49.231
			h68.923V359.385z"/>
	</g>
</g>
<g>
</g>
<g>
</g>
<g>
</g>
<g>
</g>
<g>
</g>
<g>
</g>
<g>
</g>
<g>
</g>
<g>
</g>
<g>
</g>
<g>
</g>
<g>
</g>
<g>
</g>
<g>
</g>
<g>
</g>
</svg>
